<?xml version="1.0" encoding="utf-8"?>
<!-- Generator: Adobe Illustrator 16.0.0, SVG Export Plug-In . SVG Version: 6.00 Build 0)  -->
<!DOCTYPE svg PUBLIC "-//W3C//DTD SVG 1.1//EN" "http://www.w3.org/Graphics/SVG/1.1/DTD/svg11.dtd">
<svg version="1.1" id="Layer_1" xmlns="http://www.w3.org/2000/svg" xmlns:xlink="http://www.w3.org/1999/xlink" x="0px" y="0px"
	 width="1038.108px" height="1159.442px" viewBox="22.128 22.119 1038.108 1159.442"
	 enable-background="new 22.128 22.119 1038.108 1159.442" xml:space="preserve">
<title>eumapgrey</title>
<g>
	<title>Layer 1</title>
	<g id="layer1">
		<path id="path1364" fill="#48CFAD" d="M684.319,1170.889c-0.901-1.371-4.25-2.509-7.44-2.53c-3.192-0.021-7.592-1.135-9.778-2.477
			c-2.733-1.679,0.153-2.005,9.272-1.047c19.705,2.069,25.163,3.392,25.163,6.101
			C701.536,1174.15,686.434,1174.109,684.319,1170.889z M896.492,1149.469c-0.991-2.43,0.102-6.129,2.572-8.696
			c7.542-7.844-0.127-13.217-8.124-5.691c-3.232,3.044-5.095,3.36-7.34,1.247c-4.308-4.053-13.962-3.492-17.962,1.044
			c-4.181,4.741-11.342,8.456-21.676,11.246c-6.481,1.749-8.908,1.079-14.223-3.923c-5.565-5.236-25.792-13.691-32.758-13.691
			c-1.305,0-2.752,2.495-3.218,5.547c-0.992,6.492-10.937,11.887-18.49,10.027c-2.903-0.715-6.376-4.018-7.718-7.339
			c-1.342-3.324-3.553-5.396-4.914-4.604c-1.359,0.79-4.196-0.881-6.305-3.714c-3.012-4.046-5.464-4.782-11.438-3.43
			c-4.183,0.946-6.785,0.884-5.782-0.138c1.002-1.022-1.258-4.547-5.022-7.829c-3.765-3.284-5.479-5.971-3.81-5.971
			s3.035-1.683,3.035-3.739s-1.788-3.739-3.972-3.739c-2.187,0-3.975-1.683-3.975-3.739s1.49-3.756,3.312-3.777
			c2.298-0.027,2.148-0.73-0.492-2.304c-3.12-1.858-3.192-2.956-0.399-6.124c2.808-3.183,2.646-4.573-0.924-7.933
			c-3.57-3.36-3.731-4.753-0.925-7.968c2.998-3.433,2.378-3.705-5.206-2.291c-7.052,1.313-8.602,0.827-8.567-2.696
			c0.103-10.845,11.885-15.201,42.339-15.655c9.47-0.14,15.429-0.944,13.244-1.785c-2.623-1.011-0.37-2.573,6.621-4.598
			c5.996-1.736,8.238-3.15,5.166-3.259c-5.177-0.183-11.787-4.483-11.787-7.67c0-1.731,21.76-0.699,32.414,1.539
			c5.238,1.101,7.698,0.424,8.865-2.434c2.837-6.96,34.545-19.322,48.376-18.862c6.776,0.226,14.3-0.366,16.719-1.315
			c3.038-1.191,4.904-0.211,6.047,3.174c1.837,5.448,11.159,8.838,13.693,4.98c0.896-1.363,3.024,0.143,4.729,3.349
			c1.705,3.207,5.443,5.946,8.307,6.089c2.863,0.142,8.782,1.643,13.152,3.334c12.406,4.804,23.325,5.844,33.517,3.195
			c6.158-1.599,10.983-1.582,14.085,0.053c5.265,2.771,23.722-1.321,30.538-6.77c2.185-1.748,9.553-3.733,16.373-4.415
			c11.571-1.154,12.952-0.65,20.656,7.54c5.515,5.861,7.376,9.604,5.604,11.272c-1.561,1.469-1.721,4.139-0.39,6.479
			c1.244,2.189,2.678,5.103,3.187,6.474c0.507,1.371,3.902,2.493,7.546,2.493c6.059,0,6.883,1.263,5.693,8.724
			c-0.218,1.372-2.312,2.494-4.652,2.494c-2.889,0-3.712,1.338-2.56,4.162c4.715,11.566,6.828,26.473,4.177,29.479
			c-2.015,2.284-1.769,3.539,0.88,4.495c2.02,0.729,4.312,3.627,5.093,6.438c1.349,4.854,0.5,5.063-16.815,4.137
			c-10.178-0.543-18.94,0.098-19.83,1.453c-1.008,1.534-2.881,1.421-5.096-0.309c-2.422-1.892-4.03-1.929-5.218-0.12
			c-0.944,1.437-6.967,2.612-13.383,2.612c-6.414,0-17.762,2.263-25.214,5.027c-11.73,4.351-14.971,4.628-24.109,2.05
			c-8.247-2.324-12.526-2.305-19.568,0.091c-6.878,2.341-10.367,2.385-14.734,0.187c-4.497-2.266-6.211-2.161-8.007,0.49
			c-1.256,1.855-1.712,4.836-1.016,6.623c0.697,1.788-0.952,5.491-3.664,8.232C898.647,1153.264,898.066,1153.33,896.492,1149.469z
			 M106.582,1149.039c-1.625-1.007-5.456-6.476-8.513-12.15c-3.71-6.891-8.231-11.197-13.6-12.959
			c-8.985-2.947-10.252-7.939-3.604-14.196c3.625-3.41,3.852-5.06,1.242-8.993c-2.558-3.855-2.42-5.86,0.691-10.041
			c3.429-4.607,3.409-5.912-0.176-11.062c-3.684-5.291-3.649-6.228,0.374-10.014c2.44-2.296,3.861-6.251,3.156-8.787
			c-0.705-2.537-0.124-5.286,1.291-6.108c1.415-0.823,2.233-4.541,1.818-8.261c-0.461-4.135,1.605-9.589,5.315-14.027
			c3.482-4.166,4.859-7.642,3.231-8.152c-1.562-0.489-2.839-3.04-2.839-5.669c0-3.57-1.874-4.777-7.417-4.777
			c-4.079,0-8.569,1.085-9.979,2.412c-2.958,2.784-14.39,0.6-14.39-2.75c0-1.238-2.98-1.546-6.622-0.687
			c-5.677,1.343-6.622,0.717-6.622-4.383c0-3.271-1.892-8.488-4.203-11.595c-3.313-4.452-3.53-6.41-1.024-9.252
			c1.749-1.983,4.128-3.053,5.289-2.378c3.433,1.996,10.534-1.536,10.534-5.239c0-4.771,12.412-7.274,17.265-3.482
			c2.483,1.938,8.775,2.65,16.926,1.913c7.136-0.646,15.175,0.04,17.865,1.522c2.69,1.482,16.215,2.956,30.055,3.275
			c30.906,0.71,42.603,2.055,44.725,5.142c3.75,5.459,18.662,10.121,32.19,10.066c22.236-0.093,23.738,0.191,23.738,4.483
			c0,2.413,1.477,3.473,3.714,2.664c2.043-0.737,4.421-0.675,5.288,0.14c2.811,2.646,17.486,3.191,17.486,0.647
			c0-1.358,1.191-2.471,2.648-2.471c1.456,0,2.648,3.166,2.648,7.036c0,8.19-12.522,17.183-31.263,22.446
			c-6.268,1.762-12.14,5.103-13.049,7.427c-0.909,2.321-6.435,10.661-12.282,18.531l-10.631,14.309l4.359,8.604
			c4.318,8.521,4.285,8.679-3.47,16.492c-4.306,4.338-7.829,10.012-7.829,12.609c0,3.001-1.861,4.722-5.105,4.722
			c-2.808,0-8.693,4.099-13.08,9.105c-7.214,8.236-9.193,9.092-20.72,8.963c-7.011-0.08-19.711,1.047-28.222,2.502
			c-12.161,2.078-16.082,3.896-18.304,8.487C112.462,1151.355,111.212,1151.907,106.582,1149.039z M637.872,1135.386
			c-2.469-4.981-4.269-6.147-6.635-4.299c-4.002,3.126-7.399-3.239-3.626-6.792c1.538-1.445-0.026-4.545-4.117-8.162l-6.597-5.832
			l5.642-4.606c3.104-2.531,6.95-4.6,8.548-4.595c4.305,0.014,21.115,10.028,23.596,14.056c1.182,1.919,3.269,2.84,4.636,2.044
			s2.486-0.258,2.486,1.194c0,3.347-4.196,3.369-10.77,0.06c-6.118-3.083-6.342-1.883-1.344,7.213
			c3.97,7.225,1.604,16.508-2.581,10.131c-1.584-2.411-2.58-2.01-3.981,1.604C641.427,1141.792,640.958,1141.612,637.872,1135.386z
			 M491.669,1131.004c-1.819-2.742-5.703-5.004-8.632-5.028c-7.541-0.06-29.887-13.071-28.582-16.644
			c0.6-1.637,2.678-2.401,4.622-1.699s4.293,0.12,5.221-1.293c1.147-1.747,3.572-1.76,7.58-0.042
			c3.799,1.63,11.294,1.73,21.096,0.283c8.361-1.233,15.16-1.571,15.108-0.752c-0.051,0.821-1.732,4.278-3.735,7.685
			c-2.394,4.068-2.817,7.639-1.24,10.413C508.71,1133.781,497.937,1140.449,491.669,1131.004z M57.676,1126.768
			c-6.421-0.938-6.785-1.747-6.041-13.452c0.435-6.851,1.363-13.324,2.061-14.389c1.795-2.733-7.334-9.594-11.168-8.391
			c-4.299,1.348-4.04-7.105,0.404-13.196c6.325-8.67,12.362-39.662,9.534-48.942c-3.374-11.071-3.327-11.284,2.771-12.785
			c3.04-0.748,5.303-0.075,5.309,1.579c0.007,1.586,4.179,3.084,9.271,3.329s9.259-0.596,9.259-1.87
			c0-1.273,2.851-2.316,6.335-2.316c8.648,0,11.778,11.01,5.103,17.952c-2.764,2.874-4.389,7.805-3.93,11.924
			c0.43,3.862-0.375,7.695-1.79,8.519c-1.415,0.822-1.931,3.805-1.146,6.627c1.051,3.782-0.076,5.5-4.291,6.537l-5.716,1.407
			l5.129,8.181c4.626,7.379,4.74,8.704,1.164,13.51c-3.037,4.081-3.25,6.141-0.91,8.793c2.35,2.666,2.03,4.939-1.386,9.847
			c-2.443,3.508-3.759,8.053-2.925,10.1c1.253,3.073-6.245,9.804-9.369,8.408C64.885,1127.933,61.434,1127.316,57.676,1126.768z
			 M668.396,1111.015c-0.918-1.397-7.246-5.195-14.062-8.439c-9.171-4.366-15.938-5.729-26.024-5.247
			c-12.018,0.576-13.961-0.028-16.422-5.113c-2.417-4.992-2.009-5.91,3.035-6.83c5.346-0.978,5.383-1.093,0.438-1.405
			c-9.228-0.581-17.983-22.774-8.985-22.774c1.351,0,2.455-1.545,2.455-3.434s1.775-4.82,3.944-6.515s3.29-4.075,2.492-5.291
			c-1.241-1.89,4.133-3.298,9.864-2.584c0.953,0.117,3.185-1.432,4.959-3.444c1.775-2.013,6.658-3.66,10.85-3.66
			c4.192,0,7.622-1.122,7.622-2.492c0-1.372,2.901-2.494,6.45-2.494c3.547,0,9.709-1.166,13.696-2.593
			c5.367-1.921,9.705-1.705,16.726,0.828c5.215,1.882,13.283,3.184,17.929,2.893c5.393-0.338,8.986,0.796,9.94,3.137
			c2.51,6.153-0.824,7.956-9.814,5.305c-9.368-2.762-10.712-2.827-20.492-0.997c-3.644,0.682-9.007,1.666-11.92,2.187
			c-2.914,0.521-5.458,2.521-5.654,4.442c-0.197,1.922-0.495,4.617-0.664,5.988s-3.221,2.65-6.781,2.844
			c-4.704,0.255-6.737-1.107-7.438-4.986c-0.898-4.975-1.208-4.867-4.577,1.588c-2.764,5.295-2.884,7.61-0.507,9.846
			c1.708,1.608,3.106,4.943,3.106,7.41c0,2.469,1.788,4.488,3.974,4.488c2.185,0,3.973,1.188,3.973,2.64
			c0,1.451-1.192,1.946-2.648,1.1c-4.632-2.695-8.547,1.301-5.103,5.208c2.48,2.811,2.108,3.537-1.857,3.621
			c-3.691,0.078-2.885,1.193,3.152,4.361c13.676,7.18,18.859,11.498,20.822,17.347
			C672.812,1113.717,671.354,1115.52,668.396,1111.015z M515.408,1107.066c-1.953-1.84,2.746-14.048,6.176-16.042
			c1.438-0.837,0.189-7.826-2.975-16.646c-4.177-11.638-6.902-15.543-11.625-16.659c-3.679-0.868-6.842-3.98-7.837-7.711
			c-1.07-4.012-3.525-6.253-6.853-6.253c-2.854,0-7.056-2.686-9.341-5.966c-2.886-4.146-7.646-6.459-15.601-7.581
			c-9.873-1.395-14.227-4.304-31.666-21.169c-11.119-10.755-20.225-21.085-20.232-22.956c-0.009-1.871-1.189-7.381-2.624-12.242
			c-2.085-7.06-5.091-9.975-14.925-14.472l-12.314-5.63l-10.069,7.616c-11.041,8.351-13.364,9.196-12.367,4.499
			c0.365-1.715-1.581-3.122-4.322-3.13c-2.74-0.008-6.76-2.531-8.931-5.609c-2.896-4.104-3.074-5.595-0.67-5.595
			c2.388,0,2.185-1.567-0.749-5.78c-3.692-5.304-3.603-6.03,1.081-8.782c4.022-2.364,4.531-4.01,2.395-7.765
			c-3.989-7.015-3.671-7.383,7.885-9.121c9.564-1.44,11.867-3.353,10.909-9.06c-0.675-4.02,4.859-1.559,9.809,4.362
			c6.14,7.347,8.388,7.84,8.503,1.87c0.114-5.906,6.975-14.348,8.397-10.332c1.627,4.595,12.709,5.439,12.709,0.968
			c0-2.048,1.192-3.724,2.648-3.724c1.457,0,2.649-1.803,2.649-4.006c0-2.718,1.422-3.492,4.424-2.409
			c2.433,0.88,5.271,0.307,6.308-1.271c3.168-4.825,19.309-5.377,22.893-0.78c1.739,2.229,6.978,4.789,11.641,5.687
			c7.346,1.413,8.608,2.808,9.438,10.424c0.869,7.974,0.154,9.072-7.669,11.798c-14.494,5.05-15.756,6.4-12.804,13.707
			c1.783,4.419,1.768,7.074-0.054,8.133c-1.602,0.932-1.922,4.774-0.786,9.436c1.053,4.325,1.793,9.828,1.644,12.227
			c-0.148,2.4,0.847,4.363,2.212,4.363c1.367,0,2.485-1.132,2.485-2.517c0-1.383,4.196,0.019,9.325,3.116
			c7.196,4.346,10.257,8.6,13.403,18.629c5.536,17.639,20.267,29.188,34.115,26.742c9.402-1.66,11.901,0.51,6.47,5.623
			c-2.108,1.982,1.708,5.2,13.905,11.72c24.374,13.026,36.183,22.837,32.129,26.689c-2.546,2.42-3.588,2.172-4.955-1.185
			c-0.954-2.336-5.359-6.012-9.79-8.169c-7.718-3.755-8.265-3.673-12.998,1.962c-10.284,12.243-10.645,14.149-3.511,18.549
			c7.998,4.932,8.705,12.563,1.368,14.755c-2.913,0.87-5.298,3.229-5.298,5.241c0,4.258-7.666,15.947-10.458,15.947
			C517.862,1108.568,516.287,1107.893,515.408,1107.066z M379.591,1082.621c-4.422-3.044-4.755-4.614-2.284-10.773
			c2.134-5.322,2.058-9.869-0.292-17.356c-3.157-10.062-3.114-10.177,5.246-13.929c7.97-3.576,8.621-3.492,11.969,1.554
			c1.948,2.935,3.946,8.599,4.438,12.588c1.13,9.127-3.847,27.055-6.999,25.22c-1.299-0.756-3.384,0.344-4.632,2.443
			C385.057,1085.697,384.111,1085.73,379.591,1082.621z M595.645,1065.655c-0.033-2.351-2.545-5.526-5.584-7.058
			c-3.039-1.53-4.868-3.399-4.066-4.154c0.803-0.755,0.351-3.321-1.004-5.703c-1.355-2.38-1.712-5.035-0.796-5.897
			c2.724-2.563,2.904-24.892,0.241-29.784c-3.146-5.778,1.909-11.971,8.032-9.836c8.801,3.068,13.392,10.551,11.873,19.356
			c-1.045,6.063,0.172,10.865,4.385,17.28c3.209,4.886,4.625,8.881,3.146,8.881c-1.478,0-3.383,1.964-4.233,4.364
			c-0.85,2.398-3.884,7.166-6.741,10.593C596.775,1068.643,595.69,1069.047,595.645,1065.655z M721.678,1046.508
			c-5.148-1.872-8.354-14.076-4.313-16.425c1.219-0.71,1.597-3.511,0.843-6.228c-1.729-6.222,10.933-11.82,16.644-7.359
			c1.944,1.518,4.774,2.04,6.289,1.159s4.024,1.022,5.578,4.231c1.552,3.207,6.623,7.477,11.268,9.488l8.444,3.655l-14.159,0.762
			c-10.862,0.585-15.489,2.134-19.866,6.651C728.363,1046.615,725.233,1047.802,721.678,1046.508z M610.3,1037.306
			c-2.266-2.132-4.12-6.589-4.12-9.902c0-6.592,7.589-16.556,11.068-14.533c1.197,0.696,2.176,0.21,2.176-1.079
			c0-4.228,20.409-2.907,24.532,1.587c8.872,9.667,5.948,20.407-5.555,20.407c-2.796,0-6.348,1.432-7.891,3.182
			C626.421,1041.604,615.07,1041.794,610.3,1037.306z M685.551,1026.771c-6.772-3.087-9.735-3.171-18.28-0.517
			c-10.933,3.395-16.688,1.996-14.441-3.512c0.764-1.873-1.024-5.521-3.976-8.107c-4.881-4.281-5.425-7.858-3.244-21.358
			c0.166-1.028,2.09-1.87,4.275-1.87s3.974-1.682,3.974-3.739c0-2.057-1.162-3.739-2.582-3.739c-1.419,0-4.448-3.398-6.729-7.554
			c-3.589-6.53-3.641-8.033-0.385-11.099c4.204-3.956,7.388-2.532,5.375,2.402c-1.484,3.64,9.707,5.944,34.782,7.164
			c12.089,0.588,17.581-0.324,22.953-3.815c11.647-7.569,21.997-8.312,32.734-2.351c5.229,2.905,11.229,5.281,13.331,5.281
			c5.646,0,4.642,4.202-1.354,5.679c-2.902,0.713-6.009,4.393-7.069,8.368c-1.04,3.9-3.479,8.586-5.418,10.411
			c-3.947,3.714-4.838,9.005-1.154,6.863c3.428-1.994,6.24,6.44,3.124,9.374c-1.732,1.63-3.901,1.469-6.387-0.472
			c-5.104-3.985-17.713,0.592-19.518,7.087C713.233,1029.648,697.996,1032.443,685.551,1026.771z M384.287,1023.19
			c-0.154-1.714-1.01-6.693-1.899-11.063c-1.323-6.498-0.566-8.476,4.149-10.852c5.894-2.968,10.25-0.196,10.351,6.586
			C397.045,1018.529,385.168,1032.979,384.287,1023.19z M606.18,1011.171c0-3.749-5.855-8.832-12.438-10.8
			c-4.094-1.223-6.956-0.005-10.793,4.585c-4.894,5.856-5.475,5.979-9.224,1.959c-5.39-5.778-8.404-15.509-4.807-15.509
			c1.556,0,2.827-1.749,2.827-3.887c0-2.136,1.201-3.188,2.668-2.333c1.466,0.853,3.382-0.203,4.257-2.347
			c0.873-2.144,3.249-3.896,5.278-3.896c4.436,0,4.873-4.005,0.7-6.431c-2.03-1.18-1.556-2.493,1.479-4.091
			c4.08-2.149,3.981-2.75-1.141-6.931c-4.783-3.905-5.123-5.312-2.3-9.563c2.663-4.015,2.631-5.756-0.167-8.929
			c-2.322-2.633-2.49-3.942-0.503-3.942c1.634,0,2.973-1.12,2.973-2.492c0-4.596-5.776-2.552-7.194,2.547
			c-1.087,3.91-2.2,4.411-4.982,2.238c-3.3-2.578-15.112-3.978-46.097-5.46c-10.438-0.501-12.021,0.101-12.738,4.839
			c-0.498,3.295,3.916,11.782,11.291,21.713l12.11,16.306l-8.593-0.525c-8.942-0.547-25.194-14.062-20.318-16.899
			c1.364-0.793,0.069-3.497-2.878-6.008c-2.949-2.511-5.36-6.592-5.36-9.067c0-2.477-2.322-6.537-5.16-9.025
			c-3.283-2.88-4.367-5.729-2.979-7.842c1.523-2.322,2.722-2.489,3.989-0.559c2.988,4.548,11.616,3.116,13.42-2.228
			c0.925-2.742,2.931-4.986,4.46-4.986c1.528,0,2.151-2.258,1.385-5.018c-1.51-5.431,4.328-9.761,11.651-8.642
			c2.34,0.356,8.915,3.553,14.611,7.101c12.005,7.477,27.489,11.264,27.489,6.724c0-1.623,1.224-2.24,2.719-1.37
			c1.496,0.87,2.547,2.899,2.335,4.509c-0.784,5.982,0.326,9.161,3.201,9.161c1.627,0,2.368-1.963,1.647-4.362
			s-1.754-5.896-2.295-7.771c-0.543-1.875,0.802-3.817,2.987-4.318c17.111-3.918,18.147-3.862,23.579,1.25
			c3.057,2.877,5.558,6.877,5.558,8.889c0,2.013,2.681,5.099,5.959,6.855c3.278,1.758,5.96,5.317,5.96,7.91s2.384,5.958,5.298,7.479
			c2.913,1.521,6.282,3.887,7.486,5.257c1.418,1.616,2.66,1.396,3.53-0.622c0.74-1.714,2.183-3.117,3.209-3.117
			c2.972,0,3.012,10.685,0.052,14.039c-2.835,3.218,2.816,16.461,8.412,19.717c1.796,1.044,0.729,3.07-2.857,5.436
			c-3.612,2.38-5.238,5.498-4.416,8.462c1.607,5.787-1.1,7.491-12.141,7.64c-4.715,0.063-11.213,1.671-14.439,3.572
			C607.828,1014.541,606.18,1014.69,606.18,1011.171z M251.84,1002.689c-3.136-4.906-16.843-8.012-32.169-7.287
			c-14.774,0.698-30.929-4.554-27.953-9.087c0.863-1.313-0.194-2.388-2.349-2.388c-3.397,0-3.442-1.236-0.327-9.348
			c1.974-5.141,4.64-17.762,5.924-28.045c2.086-16.694,1.348-22.575,2.408-27.564c1.275-5.999,0.396-7.656-5.375-10.13
			c-7.702-3.303-15.937-13.579-13.661-17.047c0.814-1.238-1.054-3.921-4.15-5.962c-3.096-2.041-4.832-4.922-3.861-6.403
			c1.051-1.6-0.485-2.69-3.792-2.69c-3.058,0-10.32-2.287-16.139-5.081c-5.82-2.794-11.779-4.382-13.245-3.529
			c-1.664,0.967-2.043-0.779-1.011-4.65c1.202-4.507,0.333-6.896-3.183-8.747c-6.367-3.353-3.135-6.058,7.637-6.392
			c4.77-0.147,10.148-1.952,11.95-4.009c2.854-3.255,3.92-2.968,8.246,2.229c2.961,3.558,6.254,5.219,8.155,4.114
			c1.752-1.021,7.073-1.854,11.822-1.854h8.635l-1.834-10.346c-1.007-5.689-2.769-12.438-3.915-14.998
			c-1.848-4.128-1.44-4.329,3.618-1.781c3.134,1.579,5.7,3.809,5.7,4.956c0,2.694,19.533,5.659,24.785,3.762
			c2.209-0.797,3.364-3.048,2.568-5.001c-0.983-2.41,2.395-5.152,10.507-8.53c11.827-4.923,17.764-13.287,17.764-25.026
			c0-2.582,3.148-5.402,7.696-6.895c6.691-2.195,7.878-1.872,9.085,2.473c1.04,3.74,2.767,4.586,6.873,3.359
			c3.689-1.103,5.483-0.541,5.483,1.715c0,4.442,8.682,11.294,12.709,10.03c1.75-0.549,3.332,0.217,3.514,1.702
			c0.182,1.485,0.508,4.103,0.727,5.816c0.216,1.713,2.586,2.938,5.264,2.723c2.678-0.215,8.311,2.494,12.518,6.021
			c4.207,3.528,10.642,6.714,14.302,7.082c3.659,0.367,13.123,3.547,21.027,7.066s15.637,6.399,17.184,6.399
			c3.671,0,3.569,3.984-0.274,10.744c-1.699,2.987-4.459,10.484-6.133,16.662c-1.802,6.643-4.598,11.278-6.845,11.345
			c-2.091,0.062-3.55,1.331-3.244,2.819c0.307,1.489-1.779,4.696-4.635,7.129c-2.856,2.432-5.191,5.811-5.191,7.509
			c0,1.696-1.864,3.759-4.141,4.582c-2.278,0.821-3.368,2.674-2.421,4.114c0.946,1.44,0.127,4.515-1.818,6.829
			c-3.016,3.589-2.398,3.523,4.186-0.438c7.478-4.499,7.84-4.502,11.268-0.091c2.244,2.887,2.617,5.429,1.019,6.933
			c-1.599,1.504-1.111,4.945,1.33,9.387c3.569,6.497,3.45,7.215-1.631,9.773c-4.362,2.197-4.847,3.485-2.368,6.297
			c1.714,1.943,2.452,5.158,1.643,7.146c-2.125,5.21,8.061,16.515,13.206,14.656c3.539-1.278,3.714-0.687,1.133,3.853
			c-1.677,2.949-4.16,5.363-5.515,5.363c-1.355,0-6.225,3.46-10.823,7.689c-4.921,4.528-10.133,7.18-12.673,6.446
			c-2.373-0.684-8.188-2.463-12.922-3.95c-22.576-7.099-23.293-7.13-34-1.506c-6.812,3.581-10.67,7.513-11.253,11.471
			c-0.488,3.313-1.827,6.949-2.977,8.078C266.455,1005.567,253.903,1005.918,251.84,1002.689z M555.16,994.747
			c-5.446-3.646-9.9-8.573-9.9-10.949c0-2.378-1.529-4.873-3.397-5.548c-5.2-1.879-25.739-31.225-25.739-36.777
			c0-6.066,2.307-6.25,6.906-0.546c3.094,3.836,3.529,3.877,3.604,0.343c0.062-2.943,2.034-3.762,7.369-3.057
			c4.005,0.529,13.107,1.485,20.227,2.127c7.119,0.641,14.554,2.422,16.521,3.959s5.381,2.145,7.584,1.349
			c2.456-0.888,4.007-0.03,4.007,2.213c0,2.015-1.19,3.661-2.648,3.661c-1.456,0-2.648,2.244-2.648,4.986s1.154,4.984,2.565,4.984
			c1.412,0,1.874,1.698,1.027,3.772c-0.845,2.073-0.064,5.438,1.732,7.479c2.716,3.079,2.332,3.706-2.269,3.706
			c-4.078,0-5.094,1.096-3.848,4.148c1.057,2.593,0.637,3.536-1.118,2.515c-3.781-2.2-11.682,9.528-9.697,14.396
			C567.553,1002.698,566.684,1002.464,555.16,994.747z M666.522,971.074c-1.866-1.114-6.146-2.044-9.51-2.064
			c-3.507-0.021-5.397-1.131-4.434-2.601c0.927-1.41-1.09-4.738-4.479-7.396c-3.52-2.761-4.675-4.868-2.695-4.915
			c1.908-0.045,2.781-1.129,1.94-2.407c-0.839-1.279-5.04-2.231-9.335-2.116c-9.093,0.242-16.79-4.83-14.787-9.745
			c0.822-2.014-1.303-4.572-5.176-6.233c-3.613-1.549-6.57-4.824-6.57-7.278s-2.086-5.704-4.636-7.224
			c-2.549-1.518-3.442-3.273-1.986-3.9c11.94-5.143,15.762-8.13,17.309-13.527c1.896-6.625,18.45-32.394,18.45-28.721
			c0,1.192,2.743-0.256,6.094-3.221c4.914-4.344,7.608-4.981,13.907-3.291c4.296,1.153,10.729,1.674,14.293,1.156
			c3.693-0.537,7.369,0.552,8.548,2.533c1.757,2.955,3.958,2.908,14.708-0.318c6.952-2.087,14.523-5.307,16.823-7.155
			c7.013-5.636,9.284-4.037,20.903,14.711c9.316,15.034,11.346,20.688,12.072,33.621c0.479,8.551,1.633,17.806,2.564,20.565
			c1.868,5.538,11.594,6.831,16.52,2.195c3.281-3.089,11.303-1.268,11.303,2.567c0,4.053-8.917,11.224-10.035,8.067
			c-0.55-1.554-1.905-2.826-3.01-2.826c-2.442,0-8.146,17.22-8.146,24.595c0,3.657-1.654,5.319-5.298,5.319
			c-2.912,0-5.297-1.035-5.297-2.3c0-3.655-18.153-8.304-25.579-6.551c-3.718,0.878-9.829,3.491-13.585,5.807
			C700.127,972.906,672.584,974.694,666.522,971.074z M853.646,954.89c-1.562-0.548-2.349-4.159-1.747-8.026
			c0.902-5.776-0.455-7.954-7.602-12.214l-8.7-5.183l9.876-4.432c13.494-6.058,11.908-11.75-3.572-12.81
			c-6.545-0.448-13.655-1.386-15.799-2.083c-3.424-1.113-3.426-1.541-0.012-3.527c3.297-1.918,3.118-2.789-1.191-5.752
			c-2.79-1.922-6.957-3.155-9.257-2.742c-15.898,2.856-18.751,4.016-18.751,7.619c0,7.727-23.458,24.824-37.648,27.437
			c-5.302,0.977-4.297-2.179,5.863-18.405c6.291-10.047,10.596-13.403,10.596-8.264c0,1.293,2.545,1.889,5.655,1.324
			c6.584-1.192,10.025-3.674,5.099-3.674c-1.856,0-2.722-1.6-1.924-3.557c0.797-1.957-0.267-4.897-2.366-6.537
			c-2.099-1.639-3.815-5.647-3.815-8.907c0-3.783-1.54-5.927-4.26-5.927c-3.126,0-3.853-1.53-2.729-5.742
			c1.005-3.771-0.046-6.982-3.062-9.349c-14.146-11.101-43.866-14.866-51.089-6.471c-6.037,7.016-30.81,14.548-32.688,9.939
			c-0.779-1.912-4.552-3.137-8.733-2.833c-12.071,0.874-29.109-3.053-33.628-7.751c-5.584-5.808-0.938-20.753,5.706-18.354
			c3.391,1.227,3.828,0.36,2.275-4.514c-1.056-3.314-2.141-7.231-2.412-8.702c-0.605-3.284,18.333-23.501,22.015-23.501
			c1.461,0,2.838-1.401,3.06-3.116c0.222-1.714,0.587-4.798,0.812-6.854c0.225-2.057-1.524-6.544-3.887-9.973
			c-4.285-6.215-4.269-14.955,0.026-14.955c1.246,0,4.156-1.78,6.468-3.955c6.902-6.497,50.032-4.799,54.826,2.157
			c0.938,1.359,7.096,2.599,13.687,2.757c6.591,0.157,12.867,1.119,13.947,2.135c1.079,1.016,3.485,0.658,5.348-0.796
			c2.395-1.871,5.015-1.824,8.953,0.159c3.061,1.541,7.764,2.147,10.451,1.346c3.038-0.908,5.47-0.019,6.438,2.354
			c2.777,6.812,7.019,4.029,7.019-4.607c0-10.839,5.192-14.688,20.462-15.175c6.773-0.215,12.745-1.606,13.27-3.09
			c0.526-1.485,3.149-2.16,5.829-1.501s5.573,0.131,6.431-1.176c3.012-4.586,15.097-0.002,19.073,7.235
			c2.168,3.944,2.924,7.17,1.682,7.17c-1.241,0-1.733,3.364-1.092,7.479c1.099,7.049,4.001,8.762,13.028,7.689
			c3.706-0.439,12.864,11.682,10.504,13.904c-0.875,0.823-0.368,3.647,1.127,6.274c1.848,3.249,4.363,4.285,7.86,3.241
			c3.048-0.91,6.841,0.06,9.309,2.382c3.722,3.503,4.771,3.521,9.853,0.172c8.103-5.342,10.695-4.73,16.034,3.773
			c2.598,4.136,5.812,6.888,7.144,6.112c3.044-1.771,27.031,6.128,34.316,11.3c5.246,3.724,5.274,4.059,0.735,8.788
			c-4.746,4.943-6.127,12.75-3.075,17.38c1.677,2.543,1.139,9.031-1.231,14.844c-0.822,2.017-3.974,2.759-8.368,1.967
			c-5.515-0.991-8.739,0.474-14.811,6.729c-4.269,4.397-7.171,8.893-6.451,9.989c0.721,1.097-4.063,3.41-10.63,5.141
			c-6.567,1.73-12.576,4.113-13.353,5.297c-0.777,1.183-3.167,2.15-5.314,2.15c-2.146,0-8.333,1.861-13.75,4.138
			c-5.415,2.275-10.646,4.239-11.622,4.362c-4.293,0.545-15.441,11.795-15.441,15.581c0,2.294,0.728,3.485,1.619,2.647
			c0.89-0.838,4.603,1.813,8.25,5.894c4.912,5.495,8.098,7.023,12.286,5.896c3.111-0.836,7.742-2.068,10.291-2.738
			c2.89-0.757,4.637,0.156,4.637,2.425c0,4.724-6.688,7.06-14.756,5.153c-4.475-1.057-6.874-0.311-8.019,2.495
			c-0.897,2.202-3.45,4.003-5.672,4.003c-2.221,0-7.756,2.104-12.298,4.676C860.205,953.781,855.208,955.437,853.646,954.89z
			 M478.767,922.231c-6.808-11.487-5.116-16.696,5.571-17.167c9.555-0.42,27.137-3.952,34.827-6.996
			c8.124-3.216,7.971,3.604-0.179,7.982c-5.804,3.119-7.648,5.616-6.558,8.877c1.061,3.165-0.099,4.936-3.833,5.854
			c-3.228,0.794-4.786,2.703-3.926,4.81c1.685,4.133-0.317,4.412-7.103,0.995c-3.317-1.671-5.507-1.671-6.604,0
			C488.027,931.058,482.917,929.233,478.767,922.231z M751.476,922.378c-0.212-2.479-0.633-10.512-0.936-17.847
			s-1.617-14.066-2.924-14.957c-2.466-1.681-4.342-4.397-15.324-22.182l-6.541-10.592l6.485-1.532
			c6.778-1.601,22.274,3.085,22.274,6.736c0,1.162,1.788,1.467,3.973,0.677c2.186-0.788,3.974-0.192,3.974,1.325
			s1.788,2.759,3.973,2.759c4.688,0,5.141,2.89,1.061,6.731c-2.119,1.994-1.469,4.102,2.387,7.73
			c2.915,2.743,6.095,7.343,7.065,10.221c0.97,2.877,2.838,5.231,4.152,5.231c1.312,0,1.703,1.676,0.868,3.723
			c-1.007,2.471-3.573,3.235-7.636,2.275c-5.251-1.24-6.862,0.133-11.344,9.667C757.112,924.836,752.062,929.238,751.476,922.378z
			 M548.527,916.341c-16.205-7.55-22.328-15.725-20.149-26.904c0.961-4.928,2.775-9.337,4.033-9.796
			c1.257-0.46,1.611-1.863,0.789-3.117c-0.825-1.252,0.232-2.279,2.349-2.279c2.114,0,4.594-1.836,5.508-4.078
			c1.516-3.714,2.075-3.728,6.269-0.156c5.714,4.867,27.069,3.033,27.069-2.325c0-1.977,2.785-3.411,6.622-3.411
			c3.642,0,6.622-1.018,6.622-2.26s2.245-1.706,4.988-1.031c3.066,0.755,6.405-0.68,8.671-3.724c2.557-3.433,6.711-4.95,13.555-4.95
			c5.429,0,9.869,1.01,9.869,2.242c0,1.234,2.798,2.244,6.216,2.244c3.419,0,9.022,2.289,12.451,5.088
			c6.22,5.077,6.222,5.092,0.627,6.469c-5.853,1.44-24.592,27.475-24.592,34.166c0,5.213-3.258,6.749-19.354,9.126
			c-21.296,3.146-29.429,5.073-32.164,7.621C564.239,922.679,561.125,922.209,548.527,916.341z M348.969,910.997
			c-2.285-5.193-4.551-6.883-8.068-6.018c-5.971,1.47-9.083-2.225-3.554-4.222c2.177-0.785,3.958-2.937,3.958-4.78
			c0-1.843,3.376-6.395,7.501-10.114c7.223-6.513,13.155-8.188,36.318-10.257c10.375-0.927,10.729-0.71,11.313,6.942
			c0.638,8.36,7.331,15.064,12.997,13.018c4.888-1.765,4.176,0.371-2.088,6.266c-4.397,4.139-6.233,4.561-9.334,2.138
			c-2.124-1.658-4.129-2.575-4.459-2.036c-0.329,0.538-1.875,3.155-3.436,5.815c-4.071,6.94-9.197,7.749-10.873,1.718
			c-1.171-4.215-2.381-4.716-6.447-2.669c-2.753,1.388-5.006,4.037-5.006,5.89s-3.52,3.854-7.822,4.449
			C353.341,918.053,351.662,917.115,348.969,910.997z M468.445,900.812c-10.823-2.189-15.246-4.392-17.199-8.559
			c-1.687-3.6-4.062-5.071-6.622-4.104c-2.195,0.83-6.648,1.812-9.896,2.179c-3.247,0.369-7.591,1.987-9.653,3.598
			c-2.909,2.272-4.618,2.106-7.642-0.737c-2.513-2.365-4.805-2.809-6.459-1.251c-4.192,3.944-11.398-0.316-11.398-6.741
			c0-6.406,1.751-7.212,7.82-3.599c2.115,1.26,5.096,1.54,6.622,0.622c1.527-0.916,5.755-1.842,9.397-2.058
			c3.642-0.216,11.85-1.811,18.237-3.544c8.751-2.373,12.804-2.452,16.432-0.32c6.355,3.736,8.441,0.082,4.925-8.625
			c-2.352-5.822-2.024-7.53,1.968-10.228c2.635-1.78,6.915-4.918,9.512-6.974c3.424-2.709,6.069-3.058,9.625-1.267
			c3.813,1.921,6.443,1.125,11.841-3.582c6.557-5.719,7.5-5.863,17.186-2.647c5.637,1.871,12.408,3.223,15.051,3.003
			c3.438-0.287,5.447,2.081,7.066,8.325c3.746,14.435,3.595,15.8-1.919,17.276c-2.913,0.78-5.416,2.821-5.562,4.535
			c-0.146,1.713-0.445,5.881-0.663,9.26c-0.547,8.467-8.616,12.176-37.479,17.227C485.992,903.239,476.457,902.434,468.445,900.812z
			 M403.386,876.598c-4.281-2.663-9.272-4.316-11.093-3.676c-1.821,0.642-3.311,0.191-3.311-1c0-2.423-10.64-1.919-22.141,1.047
			c-7.477,1.928-7.549,1.845-5.638-6.486c1.066-4.644,4.116-12.493,6.779-17.445l4.841-9.004l-16.422-6.078
			c-14.124-5.229-16.422-6.965-16.422-12.411c0-3.48-1.462-7.994-3.249-10.028c-2.437-2.773-2.491-4.41-0.22-6.548
			c2.271-2.137,1.886-5.229-1.536-12.374c-3.452-7.205-3.925-11.104-1.939-16.019c1.443-3.571,2.006-8.712,1.253-11.425
			c-1.023-3.68,0.252-5.313,5.016-6.439c8.123-1.918,14.506-13.559,8.605-15.689c-5.027-1.815-5.16-5.881-0.194-5.881
			c4.727,0,7.811-12.565,5.507-22.436c-1.685-7.224-1.42-7.479,7.737-7.479c5.213,0,9.183,0.841,8.818,1.869
			c-0.757,2.138,1.547,3.117,7.335,3.117c2.938,0,3.587-1.635,2.408-6.059c-1.434-5.377-0.919-5.889,4.584-4.554
			c3.411,0.828,7.392,2.88,8.85,4.561c1.456,1.68,5.628,3.781,9.27,4.671c6.043,1.477,6.17,1.354,1.453-1.398
			c-6.636-3.873-18.871-17.571-18.008-20.163c0.365-1.092-0.827-2.021-2.648-2.062c-1.846-0.043-1.268-1.196,1.306-2.607
			c4.321-2.369,4.335-2.934,0.224-8.839l-4.39-6.308l10.369,1.738c12.712,2.133,17.141,5.425,11.672,8.679
			c-3.557,2.117-1.869,3.495,3.334,2.723c1.093-0.163,1.986,0.635,1.986,1.772c0,1.14,4.172,1.939,9.271,1.78
			c9.371-0.292,12.468,2.632,5.464,5.161c-2.092,0.756-3.271,2.684-2.617,4.284c1.329,3.252,14.37,4.752,14.37,1.65
			c0-2.191,19.801-12.451,24.031-12.451c1.473,0,5.192,2.204,8.266,4.899s6.651,4.281,7.952,3.525
			c8.219-4.782,17.273,18.281,11.385,28.999c-3.362,6.116-3.264,7.264,0.925,10.832c2.575,2.192,6.044,9.341,7.706,15.882
			c6.56,25.822,6.602,27.486,0.829,32.92c-3.009,2.831-7.44,5.147-9.851,5.147c-2.409,0-12.046,4.034-21.414,8.965
			c-15.666,8.245-16.895,9.494-15.314,15.58c0.944,3.639,7.899,12.584,15.454,19.879l13.736,13.265l-10.074,8.036
			c-9.217,7.353-9.837,8.623-7.285,14.941c3.724,9.215,3.593,9.59-2.148,6.215c-3.784-2.225-7.655-2.166-16.555,0.248
			c-6.388,1.733-14.596,3.328-18.237,3.544c-3.643,0.215-7.889,1.151-9.437,2.081C412.432,880.679,407.665,879.26,403.386,876.598z
			 M544.443,865.376c-9.583-8.449-9.152-19.369,0.816-20.648c7.438-0.956,15.893-7.125,15.893-11.601c0-1.624,2.979-4.23,6.62-5.792
			c4.928-2.112,6.622-2.116,6.622-0.015c0,1.642,2.016,1.109,4.805-1.265c3.705-3.156,5.521-3.416,7.945-1.135
			c1.729,1.627,3.143,4.415,3.143,6.198c0,4.256,5.343,3.993,11.765-0.578c6.763-4.813,20.292-4.647,31.513,0.39l9.023,4.05
			l-4.297,9.635c-4.106,9.205-8.949,12.214-12.053,7.488c-0.793-1.21-6.226-2.261-12.071-2.336
			c-8.064-0.105-11.321,1.082-13.507,4.927c-1.877,3.298-4.646,4.628-7.947,3.815c-2.788-0.686-5.737-0.229-6.553,1.012
			c-0.815,1.242-4.392,2.26-7.949,2.26c-3.981,0-6.465,1.436-6.465,3.739c0,2.056-2.086,3.753-4.635,3.773
			c-2.549,0.019-7.02,0.619-9.934,1.336C553.745,871.473,549.263,869.624,544.443,865.376z M469.895,834.023
			c-9.428-8.727-17.823-18.671-18.66-22.1c-1.334-5.474,0.176-7.121,12.411-13.544c17.832-9.361,41.881-15.054,41.881-9.913
			c0,1.934,0.895,3.331,1.987,3.106c4.014-0.826,16.479,3.491,15.293,5.297c-0.673,1.026,1.541,4.31,4.919,7.296
			c5.443,4.813,6.525,4.997,9.508,1.617c2.979-3.379,4.918-3.034,16.952,3.013c19.423,9.763,21.496,13.104,10.938,17.631
			c-3.642,1.562-6.622,4.358-6.622,6.212c0,4.257-11.768,10.353-15.641,8.1c-1.595-0.928-2.9-0.516-2.9,0.917
			c0,3.18-19.274,1.746-30.382-2.26c-6.167-2.225-8.458-2.133-10.595,0.425C489.618,851.027,487.889,850.683,469.895,834.023z
			 M636.641,830.251c-12.348-6.736-26.77-7.52-35.274-1.913c-5.659,3.732-6.293,3.589-11.454-2.586
			c-4.207-5.034-6.279-5.898-9.018-3.761c-2.728,2.131-4.358,1.522-7.013-2.617c-4.293-6.694-40.712-24.68-38.376-18.953
			c2.452,6.018-2.263,6.941-7.521,1.474c-3.475-3.614-3.781-4.928-1.148-4.928c5.672,0-0.818-4.919-8.26-6.262
			c-3.535-0.637-7.751-2.854-9.368-4.926c-1.618-2.073-4.062-3.77-5.431-3.77c-1.368,0-2.489-3.736-2.489-8.306
			c0-13.237-6.754-36.13-11.971-40.572c-4.299-3.661-4.4-4.773-1.005-10.956c2.707-4.925,3.107-9.09,1.41-14.658
			c-2.706-8.882-1.962-9.482,20.235-16.298c7.535-2.315,14.966-5.642,16.509-7.392c4.062-4.606,30.534-12.577,35.642-10.731
			c2.386,0.86,4.339,3.736,4.339,6.386c0,5.704,14.094,11.268,20.79,8.208c6.073-2.777,66.11-1.933,68.908,0.969
			c2.525,2.62,10.954,33.384,10.954,39.982c0,2.303-3.211,6.989-7.138,10.414c-7.077,6.173-7.094,6.26-1.825,10.274
			c3.965,3.021,5.237,6.822,5.02,15.001c-0.171,6.392,1.884,15.093,4.932,20.892c4.528,8.613,4.709,10.306,1.354,12.71
			c-2.127,1.525-8.972,8.032-15.207,14.457c-9.955,10.257-10.968,12.338-8.293,17.04
			C650.135,836.802,648.855,836.916,636.641,830.251z M315.099,818.439c-3.069-3.074-5.58-7.654-5.58-10.178
			c0-4.287-0.319-4.317-4.844-0.463c-5.142,4.379-8.604,5.345-8.085,2.256c0.97-5.781-1.12-8.625-7.995-10.881
			c-4.225-1.386-8.312-4.793-9.085-7.572c-1.054-3.794-2.77-4.644-6.888-3.414c-4.178,1.248-5.483,0.555-5.483-2.916
			c0-6.475,9.409-11.514,15.638-8.375c3.607,1.816,7.653,1.221,15.169-2.239c5.848-2.689,10.654-3.661,11.189-2.26
			c0.518,1.353,3.796,3.479,7.285,4.727c4.38,1.568,6.344,4.218,6.344,8.564c0,3.865,1.498,6.294,3.88,6.294
			c5.374,0,9.596,8.097,6.571,12.598c-1.333,1.983-2.479,2.484-2.544,1.112c-0.067-1.37-1.351-0.507-2.852,1.919
			c-1.502,2.428-2.025,6.501-1.166,9.054C329.033,823.719,321.521,824.872,315.099,818.439z M328.83,816.904
			c-0.306-4.109,0.442-7.473,1.662-7.473c4.131,0,8.264,6.824,6.602,10.901C334.381,826.983,329.426,824.928,328.83,816.904z
			 M122.98,797.591c13.913-17.459,17.932-20.478,27.321-20.523c8.851-0.042,13.192-3.18,19.024-13.752
			c2.373-4.3,2.274-4.441-0.708-1.031c-1.901,2.176-6.236,5.349-9.633,7.053c-5.206,2.61-6.685,2.442-9.408-1.062
			c-1.776-2.287-4.957-3.881-7.067-3.544c-2.109,0.34-5.937-0.246-8.504-1.302c-2.743-1.126-6.294-0.648-8.608,1.159
			c-2.167,1.691-4.028,2.658-4.136,2.147c-2.341-11.039-2.126-11.512,6.228-13.729c5.847-1.554,9.995-4.998,13.165-10.938
			c2.719-5.095,3.53-9.013,1.969-9.505c-1.46-0.46-1.982-1.861-1.159-3.115c0.823-1.254-0.403-2.279-2.726-2.279
			c-3.402,0-3.671-0.971-1.387-4.986c3.062-5.384,16.888-7.027,19.944-2.372c1.179,1.793,2.868,1.715,5.381-0.248
			c3.105-2.425,3.055-3.433-0.328-6.616c-2.435-2.292-3.095-4.868-1.69-6.609c3.873-4.799,2.325-17.808-2.117-17.808
			c-8.372,0-10.036-11.744-2.648-18.696c5.296-4.985,5.296-4.985-1.324-4.985c-3.643,0-6.622,1.002-6.622,2.227
			c0,3.675-8.369,5.532-12.034,2.669c-2.546-1.988-3.641-1.568-4.3,1.648c-0.836,4.09-1.126,4.089-5.49-0.019
			c-4.377-4.119-4.345-4.82,0.642-14.019c3.372-6.223,4.271-10.255,2.513-11.277c-1.505-0.876-1.955-3.91-1-6.744
			c1.321-3.917,0.789-4.811-2.218-3.725c-2.176,0.785-5.293,0.17-6.927-1.368c-2.196-2.066-3.02-1.854-3.158,0.818
			c-0.113,2.188-1.022,1.647-2.306-1.371c-1.396-3.283-0.39-8.391,2.947-14.957l5.066-9.971l-6.476,7.214
			c-4.175,4.651-7.979,6.673-10.707,5.688c-5.664-2.046-5.394-6.62,0.404-6.867c2.55-0.108,3.203-0.743,1.452-1.413
			c-2.358-0.902-2.015-3.596,1.325-10.397c2.479-5.051,5.699-10.005,7.156-11.013c1.496-1.034,0.631-1.848-1.987-1.869
			c-6.916-0.057-6.388-14.136,0.608-16.226c2.884-0.86,5.024-2.339,4.755-3.283c-0.269-0.945,0.944-5.645,2.697-10.443l3.186-8.725
			l17.223-0.23c20.12-0.271,21.88,2.527,7.902,12.561c-5.126,3.68-8.652,7.708-7.835,8.951c0.815,1.242-0.491,5.096-2.905,8.562
			c-4.924,7.072-2.948,7.815,6.816,2.562c7.147-3.844,33.25-5.066,35.486-1.662c2.716,4.138-11.254,31.559-18.108,35.541
			c-9.77,5.679-11.692,8.143-4.797,6.148c10.064-2.911,6.596,2.38-3.901,5.952c-9.502,3.232-9.634,3.436-3.59,5.539
			c3.45,1.201,8.283,1.583,10.74,0.85c6.193-1.85,21.771,8.635,24.048,16.185c1.033,3.427,3.216,10.865,4.852,16.528
			c2.263,7.839,4.89,11.045,11.008,13.43c11.493,4.479,13.768,9.89,7.312,17.393l-5.317,6.181l8.015,3.076
			c9.929,3.813,13.153,11.876,7.219,18.047c-4.012,4.173-3.985,4.623,0.373,6.196c2.584,0.933,5.12,0.512,5.633-0.938
			c1.339-3.782,14.18-3.104,20.016,1.054c7.626,5.436,3.846,20.048-6.486,25.076c-4.353,2.12-7.286,4.81-6.518,5.979
			s-0.461,2.796-2.73,3.615c-6.42,2.318-1.73,6.512,7.285,6.512c7.039,0,7.662,0.513,4.697,3.874
			c-6.067,6.881-14.135,9.64-29.017,9.925c-29.314,0.56-34.745,1.159-33.104,3.657c1.834,2.793-6.091,2.188-11.286-0.864
			c-5.178-3.041-12.774,0.324-16.061,7.113c-2.61,5.39-3.772,5.821-9.305,3.448c-4.914-2.106-8.148-1.823-14.506,1.271
			C115.318,808.765,114.697,807.984,122.98,797.591z M322.762,776.104c-3.642-1.501-8.044-4.008-9.782-5.571
			c-1.739-1.562-6.508-2.418-10.596-1.903l-7.434,0.939l7.61-3.378l7.611-3.376l-7.976-1.501l-7.976-1.502l6.326-11.759
			c3.479-6.467,6.324-13.25,6.324-15.074s1.265-3.316,2.808-3.316c1.634,0,2.282,3.136,1.551,7.504
			c-1.65,9.854,6.712,15.062,14.092,8.775c3.943-3.358,4.248-5.111,1.766-10.15c-1.65-3.351-3.894-6.1-4.987-6.109
			c-4.281-0.043-1.852-12.18,2.648-13.237c22.928-5.388,35.615,5.556,21.19,18.28c-5.538,4.886-5.639,5.479-1.427,8.403
			c4.011,2.783,4.094,3.737,0.725,8.266c-2.097,2.816-6.844,5.836-10.553,6.711c-5.658,1.338-6.308,2.355-4.046,6.333
			c1.481,2.605,1.806,6.911,0.721,9.566C329.678,778.116,328.402,778.427,322.762,776.104z M791.339,772.039
			c-0.832-2.057-4.988-3.961-9.236-4.232c-4.25-0.271-16.52-0.996-27.266-1.612c-10.747-0.614-20.282-2.2-21.19-3.523
			c-4.734-6.903-50.932-8.379-58.574-1.871c-5.937,5.058-10.653,3.178-8.797-3.507c0.867-3.119-0.56-5.718-4.122-7.514
			c-5.869-2.956-5.012-10.146,1.208-10.146c5.593,0,7.279-11.045,3.781-24.767c-3.624-14.219-2.332-17.74,5.961-16.237
			c7.238,1.312,15.747-0.999,13.92-3.78c-1.254-1.911,10.893-6.35,15.079-5.512c1.04,0.209,1.257-1.176,0.481-3.078
			c-0.775-1.9-0.137-4.197,1.419-5.103c1.557-0.904,2.831-3.261,2.831-5.237c0-3.943,9.191-13.563,12.959-13.563
			c3.488,0,5.74-7.014,2.571-8.006c-1.771-0.557-1.582-3.189,0.552-7.594c2.58-5.33,4.543-6.438,9.385-5.294
			c4.563,1.078,7.808-0.362,12.758-5.657c3.648-3.905,6.674-5.735,6.72-4.064s1.871,2.392,4.057,1.604
			c2.186-0.789,3.974-0.127,3.974,1.471c0,1.599,1.084,2.276,2.41,1.505c4.046-2.354,10.59,1.298,9.059,5.055
			c-1.71,4.193,2.148,4.677,6.282,0.786c4.354-4.099,17.194,2.536,21.582,11.152c2.759,5.418,2.927,8.555,0.702,13.149
			c-2.315,4.785,9.728,24.498,12.277,26.29c2.55,1.791,4.636,4.938,4.636,6.993c0,2.054,1.788,3.847,3.973,3.981
			c9.269,0.576,10.828,1.129,9.384,3.328c-0.838,1.275-0.312,3.024,1.169,3.886c4.528,2.634,3.021,6.223-3.853,9.171
			c-4.889,2.095-7.479,2.073-10.243-0.086c-4.54-3.546-11.323,2.656-8.165,7.465c1.096,1.668,2.829,7.342,3.854,12.609
			c1.671,8.604,1.244,9.72-4.219,11.011c-8.332,1.967-13.794,8.275-14.889,17.189C793.206,772.87,792.262,774.324,791.339,772.039z
			 M39.031,767.557c-0.172-0.962-0.172-2.591,0-3.619c0.173-1.028-0.948-1.869-2.491-1.869s-2.039-1.168-1.103-2.593
			c1.107-1.686-0.922-2.053-5.803-1.05l-7.506,1.543l6.186-4.73c3.504-2.68,5.801-6.76,5.297-9.409
			c-0.678-3.572,1.618-5.402,9.707-7.738c9.228-2.665,9.655-3.085,3.311-3.251c-8.689-0.23-9.786-6.158-1.987-10.743
			c7.665-4.504,6.524-6.894-3.311-6.938c-4.734-0.021-10.358-1.08-12.497-2.353c-3.272-1.947-2.957-3.073,1.987-7.109
			c7.31-5.967,7.548-10.441,0.555-10.441c-4.657,0-4.908-0.622-2.012-4.986c3.698-5.572,11.475-6.647,13.524-1.87
			c1.055,2.462,1.38,2.451,1.545-0.047c0.143-2.164,2.438-2.637,7.267-1.496c5.795,1.369,6.763,0.944,5.413-2.366
			c-3.212-7.879,4.128-7.192,11.733,1.1l7.724,8.419l5.167-6.231c2.842-3.429,5.194-4.874,5.226-3.213
			c0.033,1.659,2.597,5.244,5.699,7.963c6.274,5.501,10.36,28.763,7.046,40.119c-3.854,13.215-5.229,15.186-8.7,12.475
			c-2.429-1.896-4.045-1.938-5.231-0.131c-0.944,1.438-3.765,2.613-6.269,2.613s-6.679,2.338-9.277,5.193
			c-2.599,2.856-6.362,4.604-8.364,3.88c-2.001-0.723-4.053-0.144-4.56,1.286C56.198,763.097,39.478,770.045,39.031,767.557z
			 M660.226,691.21c-1.317-2.796-4.905-6.249-7.975-7.673c-4.462-2.07-5.128-3.741-3.323-8.334
			c2.917-7.421-2.58-12.848-13.011-12.848c-9.803,0-15.443-6.005-17.671-18.812c-1.466-8.427-0.812-10.89,3.97-14.957
			c4.831-4.107,8.944-4.759,26.309-4.162c11.321,0.391,23.354,1.21,26.739,1.824c3.385,0.613,7.126-0.267,8.315-1.954
			c1.618-2.3,2.847-1.975,4.894,1.292c1.502,2.398,4.821,4.362,7.378,4.362c7.282,0,22.546,16.188,20.888,22.154
			c-0.768,2.765-0.033,5.554,1.633,6.196c1.667,0.644,0.944,1.258-1.605,1.366c-2.549,0.109-4.636,1.879-4.636,3.937
			c0,2.057-1.786,3.739-3.972,3.739c-2.386,0-3.975,2.302-3.975,5.762c0,6.611-8.903,16.674-14.753,16.674
			c-2.176,0-4.59,1.559-5.366,3.465C681.737,698.945,663.121,697.357,660.226,691.21z M96,692.188
			c-3.075-1.097-6.442-4.052-7.481-6.565c-1.755-4.245-2.254-4.151-6.99,1.314l-5.101,5.884l-4.963-5.768
			c-4.944-5.747-4.926-5.804,4.88-14.94c12.587-11.729,20.962-14.446,25.707-8.341c1.932,2.486,3.513,6.551,3.513,9.03
			c0,2.481,1.192,4.51,2.648,4.51c4.239,0,3.061,7.278-1.986,12.278C102.911,692.875,99.999,693.615,96,692.188z M467.409,683.355
			c-2.199-5.395-1.164-6.369,3.739-3.519c2.837,1.65,3.087,2.993,0.938,5.018C469.936,686.879,468.683,686.478,467.409,683.355z
			 M57.369,671.666c1.716-1.944,2.548-4.075,1.849-4.734c-0.7-0.658,3.561-3.752,9.468-6.877c5.906-3.124,11.399-5.059,12.206-4.3
			c0.807,0.759-0.819,5.078-3.614,9.6c-3.905,6.316-7.157,8.407-14.055,9.034C55.725,675.071,54.762,674.623,57.369,671.666z
			 M385.67,668.116c-3.066-0.755-4.635-3.579-4.635-8.349c0-4.346-1.862-8.146-4.691-9.57c-3.939-1.984-4.654-5.653-4.453-22.883
			c0.212-18.236,0.915-21.034,6.309-25.146c3.339-2.543,8.44-4.625,11.336-4.625c2.897,0,8.779-3.54,13.072-7.863
			c10.379-10.459,15.357-6.809,10.315,7.566c-4.42,12.607-1.94,22.732,5.569,22.732c4.691,0,5.042,0.6,2.22,3.799
			c-1.842,2.089-3.965,3.221-4.715,2.515c-2.533-2.383-8.173,3.989-6.71,7.579c0.898,2.203-0.229,3.557-2.962,3.557
			c-2.428,0-3.677,1.122-2.776,2.492c0.9,1.371,0.077,2.496-1.83,2.501c-2.332,0.006-3.49,3.681-3.537,11.218
			c-0.039,6.166,1.153,11.228,2.647,11.247c1.496,0.021,0.932,1.127-1.254,2.456C395.412,669.873,393.298,669.991,385.67,668.116z
			 M437.427,661.212c-4.675-3.137-7.857-6.31-7.068-7.052c0.787-0.741,0.166-3.574-1.38-6.295c-2.49-4.379-1.407-5.569,9.44-10.368
			c9.847-4.356,12.692-4.773,14.478-2.122c3.123,4.636,2.854,12.638-0.363,10.767c-1.468-0.854-3.43,0.314-4.359,2.598
			c-0.931,2.282-0.225,5.001,1.566,6.042c2.39,1.393,2.062,2.327-1.238,3.519c-3.65,1.317-3.879,2.317-1.222,5.332
			C451.997,668.979,447.283,667.821,437.427,661.212z M608.479,665.104c1.992-1.188,4.657-3.695,5.919-5.57
			c1.692-2.513,2.306-1.934,2.336,2.198c0.03,4.178-1.48,5.599-5.918,5.57C606.426,667.274,605.811,666.696,608.479,665.104z
			 M496.148,662.189c-2.852-4.341,0.396-5.26,4.028-1.141c2.089,2.369,2.29,3.8,0.534,3.8
			C499.161,664.849,497.107,663.652,496.148,662.189z M464.583,652.555c-0.961-1.465-1.144-3.583-0.405-4.708
			c0.738-1.126-0.961-5.613-3.778-9.973c-2.815-4.358-3.946-7.925-2.512-7.925c3.272,0,3.454-15.618,0.22-18.821
			c-5.106-5.056-22.237-39.614-25.693-51.829c-4.347-15.361-4.968-27.329-1.121-21.604c4.263,6.347,9.369-1.418,9.086-13.814
			c-0.141-6.102,0.881-11.093,2.27-11.093s1.92-1.482,1.182-3.296c-0.74-1.812,0.805-4.558,3.433-6.103
			c5.977-3.512,8.879-19.161,5.539-29.862c-1.946-6.237-1.728-8.103,0.95-8.103c2.988,0,6.593-7.03,6.71-13.088
			c0.02-1.028-2.646-4.394-5.924-7.479c-4.551-4.282-6.084-8.851-6.482-19.319c-0.288-7.54-0.722-16.514-0.967-19.941
			c-0.245-3.429-0.255-9.598-0.022-13.711c0.231-4.113,0.334-9.161,0.227-11.218c-0.679-13.125,7.185-28.569,15.866-31.164
			c2.658-0.795,7.887-0.724,11.616,0.157c5.507,1.301,7.341,0.442,9.769-4.569c3.104-6.411-0.269-16.772-5.458-16.772
			c-1.329,0,1.067-7.012,5.326-15.58c5.842-11.756,7.921-19.931,8.47-33.308c0.708-17.32,0.909-17.78,8.673-19.943
			c6.065-1.689,7.955-3.688,7.981-8.446c0.021-3.427,3.111-10.72,6.867-16.204c13.195-19.262,13.753-18.094,9.178-24.663
			c-5.126-7.364-5.185-8.646-0.395-8.646c2.073,0,5.203-4.206,6.958-9.348c1.754-5.141,4.958-11.256,7.12-13.587
			c3.499-3.776,4.576-3.841,9.825-0.604c5.473,3.373,6.116,3.177,8.978-2.734c1.696-3.502,3.085-10.242,3.085-14.975
			c0-4.735,1.19-8.608,2.647-8.608c1.456,0,2.648,1.122,2.648,2.492c0,1.372,2.443,2.494,5.43,2.494
			c2.985,0,9.156,1.814,13.715,4.031c7.784,3.789,8.501,3.753,11.878-0.594c2.179-2.803,2.542-4.957,0.924-5.464
			c-1.56-0.489-0.89-3.4,1.607-6.986c3.412-4.899,3.678-7.393,1.312-12.279c-2.366-4.888-2.231-6.129,0.666-6.129
			c1.999,0,4.289,1.609,5.09,3.575c0.803,1.968,10.058,9.26,20.569,16.207c25.289,16.713,32.562,26.832,31.813,44.252
			c-0.313,7.284,0.572,13.243,1.968,13.243c1.395,0,1.949,2.112,1.231,4.694c-0.717,2.582,0.492,5.128,2.69,9.125
			c3.142,5.72,3.437,9.72,1.386,18.769c-1.745,7.706-1.702,14.656,0.133,21.067c1.505,5.263,2.771,10.596,2.812,11.853
			c0.115,3.468-17.612,2.731-22.297-0.929c-3.003-2.345-4.114-2.418-4.114-0.268c0,1.62-1.192,2.251-2.648,1.404
			c-1.539-0.895-2.648,1.566-2.648,5.875c0,4.975-2.563,9.691-7.79,14.333c-4.284,3.806-7.162,7.877-6.395,9.046
			c0.769,1.17-0.756,5.162-3.385,8.872c-5.449,7.686-5.146,12.852,1.016,17.323c3.855,2.796,3.653,3.713-2.071,9.448
			c-3.487,3.494-7.577,9.91-9.088,14.259c-1.939,5.579-6.647,10.032-15.992,15.125c-12.094,6.591-35.759,30.521-35.759,36.161
			c0,1.292-3.059,4.237-6.799,6.544c-5.082,3.135-6.086,5-3.979,7.391c2.037,2.311,1.313,7.282-2.608,17.905
			c-4.193,11.365-5.04,17.934-3.725,28.895c1.547,12.889,2.365,14.321,8.945,15.684c7.603,1.57,26.708,22.464,26.708,29.206
			c0,2.029-3.267,5.091-7.258,6.803c-6.779,2.907-6.944,3.328-2.489,6.394c5.136,3.533,1.534,7.931-3.906,4.768
			c-1.694-0.985-2.346-0.695-1.46,0.654c0.879,1.339-0.651,4.245-3.399,6.46c-3.574,2.881-5.359,3.185-6.276,1.068
			c-0.792-1.83-1.351-1.532-1.466,0.78c-0.102,2.057-3.827,6.558-8.28,10.003c-7.151,5.532-8.246,8.148-9.394,22.435
			c-0.715,8.896-2.026,18.415-2.915,21.157c-0.89,2.742-1.852,8.626-2.142,13.073c-0.287,4.448-2.722,12.677-5.408,18.285
			c-4.855,10.129-4.963,10.186-16.302,8.586c-9.464-1.335-11.416-0.919-11.416,2.429c0,2.221-1.058,3.424-2.349,2.672
			c-3.648-2.122-8.387,4.764-7.616,11.067c0.5,4.086-0.788,5.833-4.604,6.242c-2.914,0.313-7.263,1.352-9.665,2.308
			S465.545,654.019,464.583,652.555z M709.916,636.266c-4.521-4.844-10.21-8.809-12.644-8.809c-2.433,0-5.916-1.921-7.74-4.269
			c-2.478-3.189-4.226-3.585-6.914-1.566c-1.978,1.485-5.386,2.43-7.571,2.098c-2.184-0.33-12.779-1.304-23.546-2.16
			c-16.972-1.351-20.758-0.869-28.474,3.619l-8.901,5.178l0.018-7.059c0.009-3.883,1.796-10.272,3.973-14.2
			c2.177-3.926,3.975-9.535,3.997-12.463c0.055-7.238,2.534-9.93,11.879-12.898c7.039-2.237,8.627-1.765,13.905,4.131
			c3.278,3.661,5.961,7.856,5.961,9.325c0,1.467,2.383,3.868,5.296,5.336c10.668,5.372,22.923-6.85,19.892-19.835
			c-1.432-6.138-0.545-7.599,6.675-10.988c9.408-4.417,14.792-2.405,25.98,9.706c4.479,4.847,6.922,5.779,10.38,3.958
			c3.179-1.674,6.742-1.148,11.997,1.774c6.637,3.688,7.317,5.219,6.069,13.62c-0.787,5.297-0.36,8.857,0.967,8.085
			c1.306-0.759,3.754,2.555,5.441,7.363c2.74,7.816,2.411,9.534-3.098,16.171c-4.135,4.982-7.876,7.066-11.363,6.33
			c-2.86-0.604-7.171,0.581-9.579,2.634C718.567,644.709,717.324,644.207,709.916,636.266z M561.152,589.945
			c0-7.167,10.394-19.823,16.279-19.823c3.886,0,2.467,5.067-1.856,6.629c-2.411,0.871-3.798,3.796-3.344,7.053
			c0.778,5.591-4.414,13.739-8.756,13.739C562.197,597.543,561.152,594.124,561.152,589.945z M713.062,579.552
			c-7.086-8.258-19.091-14.937-22.859-12.721c-7.078,4.164-10.417,3.003-9.159-3.185c1.309-6.45-2.711-10.992-5.7-6.439
			c-2.166,3.298-5.854,0.994-10.25-6.405c-2.68-4.507-2.68-5.616,0-5.647c2.06-0.022,2.32-0.737,0.684-1.869
			c-1.456-1.007-3.037-4.438-3.51-7.623c-0.619-4.159,0.689-6.177,4.635-7.146c3.023-0.745,5.497-2.163,5.497-3.155
			c0-3.159,13.671-7.796,18.622-6.316c2.624,0.783,5.438,0.408,6.254-0.834c1.775-2.704,10.746-1.927,20.987,1.821
			c4.102,1.499,12.674,2.728,19.05,2.728h11.594l-6.437,10.594c-6.802,11.196-8.438,26.21-3.755,34.446
			c2.142,3.765,1.602,5.984-2.445,10.073c-2.855,2.884-6.526,4.467-8.159,3.518s-4.582-0.465-6.554,1.075
			C718.791,584.624,716.846,583.957,713.062,579.552z M342.394,565.494c0.771-1.175-3.331-5.714-9.115-10.089
			c-6.57-4.97-10.501-10.015-10.476-13.445c0.032-4.46,0.523-4.789,2.608-1.752c2.017,2.937,2.576,3.005,2.608,0.318
			c0.034-2.868,0.789-2.883,4.675-0.083c2.55,1.838,3.704,2.312,2.566,1.059c-1.139-1.255,0.649-3.75,3.973-5.548
			c5.815-3.142,5.743-3.21-1.904-1.797c-6.067,1.122-7.006,0.841-3.972-1.188c2.186-1.461,2.782-2.71,1.324-2.774
			c-1.456-0.064-0.335-1.764,2.493-3.776c3.707-2.64,4.078-3.683,1.324-3.739c-2.879-0.062-2.644-0.916,0.959-3.488
			c3.381-2.411,3.799-3.714,1.434-4.456c-4.361-1.368-18.58,5.321-16.862,7.936c0.727,1.106-1.048,2.598-3.946,3.31
			c-6.265,1.542-6.898-1.736-1.203-6.24c2.236-1.768,5.67-4.563,7.63-6.212c1.962-1.648,4.134-2.462,4.828-1.809
			c0.695,0.652,2.922-0.731,4.951-3.078c3.211-3.714,3.144-4.074-0.525-2.784c-2.318,0.815-5.893,0.482-7.946-0.74
			c-2.052-1.225-2.435-2.242-0.847-2.263c1.586-0.021,4.414-3.124,6.283-6.895c3.185-6.427,2.703-9.078-0.795-5.986
			c-6.071,5.366-6.42,5.406-7.683,0.861c-0.728-2.618-0.222-6.611,1.123-8.874c2.617-4.4,0.537-9.95-2.967-7.911
			c-1.163,0.675-4.164-0.905-6.671-3.514c-4.41-4.585-4.137-4.798,8.255-6.432c20.412-2.692,7.731-4.836-1.093-4.703
			c-15.832,0.24-17.89-2.025-5.298-5.827c7.918-2.39,8.077-2.633,1.987-3.028c-6.117-0.397-6.217-0.593-1.324-2.572
			c2.914-1.179,3.737-2.221,1.83-2.317c-1.907-0.097-2.729-1.297-1.83-2.668s-0.368-2.493-2.817-2.493
			c-3.658,0-3.864-0.668-1.156-3.739c4.393-4.981,9.721-4.728,13.032,0.623c1.486,2.4,2.736,3.025,2.78,1.391
			c0.045-1.636,2.269-2.576,4.942-2.093c2.673,0.485,6.548-0.123,8.607-1.351c4.391-2.615,3.315-2.822-23.726-4.567
			c-2.997-0.193-3.031-0.919-0.197-4.134c2.316-2.627,5.666-3.383,10.258-2.316c5.394,1.253,6.146,0.939,3.6-1.498
			c-2.531-2.423-2.248-3.776,1.324-6.329c7.233-5.172,11.158-3.97,11.248,3.448c0.08,6.508,0.277,6.614,3.904,2.105
			c3.404-4.233,3.228-5.232-1.622-9.192c-2.994-2.442-7.135-3.832-9.202-3.085s-3.759-0.042-3.759-1.751
			c0-2.279,4.061-2.746,15.231-1.75c8.376,0.747,12.933,0.539,10.126-0.462c-6.851-2.442-0.293-4.919,10.165-3.84
			c5.577,0.576,6.752,0.052,4.543-2.028c-4.37-4.112-3.643-7.923,0.842-4.419c3.133,2.447,3.749,2.053,3.409-2.188
			c-0.229-2.845-2.247-5.263-4.485-5.37c-2.239-0.109-0.55-1.4,3.753-2.871c9.458-3.231,20.15-11.89,14.682-11.89
			c-2.414,0-1.914-1.196,1.471-3.527c5.566-3.83,9.74-0.865,7.279,5.171c-0.905,2.217,0.738,3.329,4.879,3.304
			c5.003-0.029,5.454-0.518,2.271-2.454c-3.015-1.834-1.897-2.426,4.636-2.455c6.729-0.03,8.608-1.09,8.608-4.855
			c0-2.65,2.256-5.491,5.012-6.314c3.295-0.984,4.883-3.603,4.636-7.645c-0.462-7.515-4.411-7.813-12.665-0.957
			c-4.525,3.759-4.973,4.814-1.617,3.817c7.158-2.127,5.476,2.291-2.111,5.545c-9.482,4.066-13.178,3.725-9.146-0.846
			c2.73-3.097,2.444-3.746-1.662-3.777c-3.979-0.031-4.213-0.484-1.183-2.288c2.077-1.237,4.187-4.777,4.688-7.869
			c1.145-7.062,5.61-12.24,10.556-12.24c2.094,0,3.069-1.122,2.168-2.494c-0.9-1.37-0.434-2.492,1.036-2.492
			c1.471,0,3.627,1.567,4.792,3.482c1.813,2.98,2.61,2.98,5.534,0c1.879-1.915,2.475-3.562,1.324-3.656
			c-1.15-0.097,0.294-1.141,3.207-2.318c4.869-1.971,4.763-2.163-1.325-2.401l-6.622-0.258l6.254-4.903
			c3.438-2.696,5.294-4.902,4.121-4.902s1.812-2.737,6.632-6.085c4.821-3.348,10.632-8.676,12.912-11.841
			c4.064-5.637,4.041-5.667-1.134-1.427c-4.075,3.339-6.001,3.652-8.426,1.37c-5.496-5.172-3.816-9.975,2.797-8
			c5.279,1.578,5.537,1.319,2.326-2.322c-2.938-3.329-3.001-5.484-0.347-11.517c2.886-6.555,3.925-7.094,8.931-4.625
			c5.393,2.662,5.455,2.568,1.278-1.93c-3.91-4.21-3.951-5.103-0.383-8.185c3.079-2.661,4.465-2.761,5.992-0.434
			c1.431,2.179,4.136,1.216,9.653-3.436l7.666-6.463l-6.622,0.428c-3.643,0.237-9.39,0.255-12.771,0.041
			c-5.082-0.32-5.541-0.952-2.648-3.643c1.925-1.791,5.851-4.094,8.724-5.12c4.381-1.563,4.595-2.238,1.324-4.185
			c-3.178-1.893-2.92-2.36,1.399-2.535c5.296-0.212,5.296-0.212,0-2.354c-5.298-2.144-5.298-2.144,0-2.356
			c4.163-0.167,4.495-0.69,1.557-2.441c-3.163-1.884-3.061-2.87,0.661-6.372c2.422-2.28,4.439-3.223,4.484-2.097
			c0.044,1.126,1.285,0.101,2.758-2.278c2.852-4.606,14.528-5.266,20.338-1.149c2.309,1.636,3.311,3.973,3.311,1.186
			c0-3.703-3.631-5.212-17.187-7.14c-5.022-0.713-4.967-1.03,1.159-6.796c4.039-3.801,6.815-4.948,7.476-3.086
			c0.576,1.628,2.638,2.96,4.58,2.96c1.94,0,3.928,1.085,4.414,2.41c0.485,1.326,2.257-0.351,3.938-3.725
			c2.86-5.748,2.649-6.043-3.312-4.634c-4.815,1.138-6.367,0.491-6.367-2.653c0-2.287,0.952-3.604,2.113-2.928
			c1.163,0.677,3.646,0.337,5.521-0.752c2.66-1.549,2.508-2.307-0.704-3.467c-2.26-0.816-4.814-0.412-5.677,0.899
			c-2.238,3.41-9.842,2.956-8.613-0.514c1.197-3.382,7.9-5.188,19.838-5.348c8.523-0.114,13.601-5.115,8.314-8.189
			c-1.873-1.089-1.619-2.333,0.756-3.715c2.859-1.663,2.911-2.7,0.258-5.196c-2.653-2.498-2.121-3.744,2.671-6.249
			c4.825-2.521,5.086-3.145,1.35-3.216c-2.549-0.048-4.636-1.188-4.636-2.531c0-3.061,19.344-12.501,25.721-12.553
			c4.03-0.032,4.145-0.401,0.769-2.455c-2.187-1.33-2.782-2.45-1.326-2.493c1.458-0.042,0.938-1.095-1.153-2.34
			c-3.151-1.877-3.209-2.938-0.338-6.194c1.905-2.161,5.106-3.929,7.114-3.929c2.304,0,3.649-2.811,3.649-7.625
			c0-4.217,1.131-6.967,2.532-6.152c1.394,0.811,1.877,3.4,1.075,5.756c-0.948,2.782-0.662,3.253,0.815,1.346
			c3.096-3.996,12.4-2.911,14.495,1.69c1.381,3.034,2.094,2.799,3.775-1.246c1.141-2.742,3.859-7.612,6.045-10.823
			c2.185-3.21,4.298-8.705,4.695-12.209c0.397-3.504,2.097-7.608,3.779-9.12c3.604-3.239,0.927,21.333-3.231,29.658
			c-2.449,4.905-2.423,4.907,1.63,0.147c2.266-2.662,4.119-6.307,4.119-8.102c0-3.949,1.284-4.042,8.783-0.633
			c5.252,2.389,5.358,2.306,1.15-0.897c-6.871-5.23-5.352-18.282,1.579-13.573c0.504,0.342,2.83-0.872,5.17-2.699
			c4.428-3.459,15.103-1.873,15.103,2.244c0,1.279,1.233,2.325,2.741,2.325c1.825,0,1.758-1.733-0.203-5.18
			c-1.62-2.849-2.31-6.74-1.533-8.645c0.777-1.905,0.271-4.127-1.12-4.938c-3.109-1.809,0.253-1.179,2.44-1.179
			c1.634,0,19.849,6.436,17.261,10.485c-1.659,2.595-1.267,2.621,2.002,0.131c2.234-1.702,4.847-2.356,5.805-1.454
			c2.432,2.289,2.174-0.293-0.755-7.541c-1.92-4.756-1.576-6.515,1.493-7.623c2.195-0.793,3.355-2.406,2.582-3.584
			c-0.774-1.179,0.214-4.229,2.194-6.779c3.189-4.104,4.134-4.22,8.244-1.01c4.213,3.29,4.479,3.141,2.875-1.612
			c-1.125-3.337-0.302-6.38,2.268-8.387c2.218-1.732,4.033-6.191,4.033-9.908c0-8.14,7.017-9.28,9.623-1.564
			c1.539,4.556,1.951,4.669,3.35,0.922c1.124-3.008,2.74-3.606,5.463-2.022c3.348,1.947,3.282,2.857-0.478,6.769
			c-3.95,4.108-8.536,13.106-9.92,19.467c-0.3,1.371-1.652,3.75-3.007,5.288c-1.416,1.605-1.516,5.209-0.234,8.471
			c2.181,5.547,2.353,5.483,7.555-2.795c2.927-4.659,8.729-14.99,12.893-22.957c4.164-7.967,8.53-15.044,9.703-15.727
			c3.392-1.972,2.474,7.708-1.044,11.019c-2.397,2.256-2.414,2.991-0.066,2.991c2.036,0,2.569,2.552,1.544,7.382
			c-1.509,7.1-1.32,7.271,4.923,4.499c4.632-2.058,6.49-4.898,6.49-9.919c0-4.049,2.155-8.529,5.076-10.553
			c4.744-3.286,4.773-3.627,0.442-5.208c-2.551-0.93-4.634-2.413-4.631-3.294c0.009-2.506,16.79-2.963,20.862-0.568
			c4.793,2.818,1.443,7.689-5.287,7.689c-3.006,0-4.558,1.126-3.588,2.602c0.938,1.431,0.115,4.419-1.832,6.64
			c-3.176,3.625-2.928,3.732,2.422,1.05c6.613-3.317,7.28-2.315,3.218,4.829c-1.508,2.652-1.807,4.805-0.663,4.784
			c4.604-0.084,8.095-4.161,11.173-13.049c3.173-9.161,10.773-13.062,10.773-5.531c0,2.1,2.085,4.542,4.636,5.427
			c2.549,0.885,5.51,2.813,6.58,4.284c1.321,1.815,1.959,1.698,1.987-0.363c0.022-1.693,1.828-2.392,4.081-1.579
			c3.325,1.201,3.442,2.152,0.662,5.374c-2.896,3.355-2.658,3.661,1.656,2.136c3.444-1.217,6.667-0.131,10.2,3.438
			c2.84,2.869,4.745,5.464,4.235,5.767c-0.511,0.303-5.886,3.675-11.944,7.495c-10.747,6.775-11.224,6.844-19.508,2.812
			c-12.013-5.847-17.28-0.687-5.646,5.531c4.601,2.459,7.828,5.816,7.172,7.459c-0.714,1.786,0.352,2.431,2.644,1.603
			c4.306-1.555,5.309,2.983,1.19,5.379c-1.457,0.847-2.649,2.733-2.649,4.191c0,1.615,1.633,1.376,4.176-0.61
			c3.459-2.703,4.586-2.648,6.58,0.318c4.102,6.1,2.78,9.541-5.148,13.399c-4.329,2.107-8.407,6.607-9.417,10.396
			c-1.262,4.735-2.604,5.905-4.608,4.019c-2.005-1.887-1.167-4.857,2.88-10.205c7.801-10.311,5.217-17.963-10.154-30.076
			l-12.475-9.829l-7.769,4.86c-4.273,2.673-12.358,6.045-17.97,7.493c-5.609,1.448-9.572,3.223-8.806,3.944
			s-0.98,6.523-3.882,12.894c-3.477,7.631-4.736,14.291-3.694,19.521c1.312,6.575,0.634,8.222-3.948,9.591
			c-3.041,0.908-6.625,4.36-7.963,7.67c-2.932,7.257-4.306,7.369-14.3,1.169c-7.678-4.764-7.844-4.764-15.026,0.051
			c-9.972,6.682-17.667,3.006-27.231-13.007c-6.605-11.061-8.253-12.334-14.143-10.943c-3.667,0.866-8.396,3.202-10.509,5.191
			c-2.114,1.989-6.142,3.616-8.951,3.616c-5.958,0-6.044,0.325-2.188,8.292c2.213,4.569,2.08,7.475-0.543,11.958
			c-1.905,3.258-3.145,7.887-2.755,10.287c0.391,2.399,0.079,4.362-0.69,4.362c-1.559,0-18.816-6.826-26.19-10.359
			c-6.962-3.336-9.819-0.472-9.865,9.884c-0.057,12.795-3.587,17.559-10.169,13.72c-4.231-2.467-5.955-2.053-10.372,2.494
			c-2.913,2.998-6.158,8.254-7.208,11.683c-1.051,3.427-4.314,8.023-7.253,10.213c-5.117,3.814-5.15,4.255-0.797,10.51
			c4.425,6.354,4.322,4.059-3.81,17.434c-4.595,7.558-9.521,14.421-10.947,15.25c-1.428,0.83-1.822,3.799-0.879,6.596
			c1.905,5.65-2.331,9.351-10.771,9.412c-4.779,0.034-5.359,1.912-5.929,19.173c-0.497,15.072-2.261,22.414-8.312,34.584
			c-7.485,15.053-7.553,15.553-2.68,19.479c8.583,6.917,4.67,18.363-5.264,15.396c-14.966-4.47-30.481,13.223-29.427,33.555
			c0.106,2.057,0.004,7.104-0.229,11.218c-0.231,4.113-0.221,10.282,0.023,13.711c0.243,3.428,0.679,12.609,0.967,20.404
			c0.409,11.081,1.822,15.315,6.483,19.415c3.276,2.886,5.959,6.232,5.959,7.437c0,5.05-3.47,10.078-6.956,10.078
			c-2.809,0-3.232,1.708-1.704,6.856c4.03,13.561,1.824,28.473-4.935,33.365c-3.448,2.496-5.231,4.563-3.96,4.595
			c1.271,0.029,0.922,1.63-0.775,3.555c-1.699,1.926-2.379,6.159-1.513,9.407c0.866,3.249,0.397,8.683-1.042,12.079
			c-1.641,3.867-2.682,4.645-2.787,2.081c-0.092-2.25-3.147-4.796-6.789-5.656c-6.705-1.584-7.522-3.712-7.021-18.296
			c0.153-4.455-0.739-8.102-1.985-8.102c-4.957,0-7.73,6.759-6.45,15.709c1.37,9.565-2.767,17.947-7.498,15.195
			c-1.368-0.797-4.651,0.898-7.295,3.767c-2.643,2.868-6.225,5.215-7.961,5.215s-2.401,1.152-1.475,2.562
			c1.741,2.649-14.349,18.459-16.616,16.326c-0.702-0.66-3.007,0.428-5.123,2.42C361.927,567.808,339.965,569.191,342.394,565.494z
			 M341.627,418.87c-3.123-5.053-3.876-3.436-1.321,2.833c0.909,2.229,2.211,3.526,2.892,2.884
			C343.88,423.945,343.174,421.372,341.627,418.87z M645.912,76.89c2.185-1.329,2.78-2.417,1.324-2.417
			c-1.458,0-4.437,1.087-6.622,2.417c-2.186,1.329-2.782,2.417-1.324,2.417C640.746,79.306,643.727,78.218,645.912,76.89z
			 M635.316,557.627c0-3.074,2.377-5.422,6.472-6.388c8.97-2.12,13.835,1.081,7.629,5.019
			C639.805,562.355,635.316,562.793,635.316,557.627z M642.308,540.972c-2.982-2.808-1.816-5.749,2.279-5.749
			c2.186,0,3.974,1.055,3.974,2.346C648.561,540.712,644.424,542.963,642.308,540.972z M652.097,501.396
			c-0.816-2.003-0.872-5.847-0.121-8.545c1.143-4.112,0.576-4.51-3.501-2.455c-7.551,3.803-13.977,3.068-12.159-1.391
			c0.917-2.247,0.209-3.686-1.704-3.468c-1.797,0.202-5.76-0.397-8.808-1.334c-4.495-1.383-5.398-3.432-4.792-10.866
			c0.412-5.037,0.959-9.721,1.219-10.406c0.258-0.685,0.374-1.962,0.255-2.835c-0.117-0.874,0.892-5.214,2.241-9.645
			c1.828-6.001,1.416-9.944-1.615-15.463c-2.239-4.073-3.406-9.035-2.595-11.025c0.811-1.992,0.1-8.463-1.582-14.383
			c-2.783-9.791-2.54-11.286,2.689-16.568c3.161-3.194,5.449-7.559,5.085-9.698c-0.442-2.599,1.78-4.155,6.694-4.688
			c4.048-0.437,7.062-2.12,6.701-3.739c-1.189-5.323,7.022-19.174,12.304-20.751c6.677-1.995,8.963-4.353,19.816-20.436
			c11.841-17.551,15.579-20.82,21.707-18.988c4.621,1.38,4.941,0.541,3.526-9.265c-2.714-18.827-3.771-21.634-8.705-23.108
			c-15.114-4.514-23.772-23.833-19.374-43.235c2.048-9.04,1.754-13.049-1.376-18.746c-2.226-4.051-3.28-7.036-2.391-10.371
			c0.935-3.503,0.423-5.963-1.239-5.963c-1.693,0-2.6-4.778-2.254-11.884c0.784-16.18-8.467-28.832-32.269-44.138
			c-19.705-12.672-29.4-23.303-18.199-19.958c4.698,1.403,5.596,0.962,4.335-2.129c-1.036-2.542,0.277-4.457,3.772-5.501
			c2.949-0.881,5.694-1.219,6.099-0.751c0.406,0.468,3.894,6,7.751,12.293c9.22,15.042,18.153,19.078,27.719,12.52
			c6.974-4.78,7.045-4.776,18.072,1.305l11.07,6.107l1.69-7.242c1.021-4.377,4.336-8.376,8.384-10.111
			c5.733-2.458,6.441-3.96,4.923-10.462c-2.287-9.799,7.938-34.714,14.255-34.732c2.38-0.007,9.042-2.698,14.805-5.98l10.476-5.967
			l11.115,8.572c13.917,10.733,16.37,18.561,8.905,28.426c-3.052,4.034-4.761,8.535-3.798,10.001s-0.23,4.728-2.653,7.249
			c-2.905,3.02-3.442,5.141-1.576,6.226c1.994,1.161,2.001,3.098,0.024,6.575c-1.609,2.83-2.062,9.581-1.062,15.854
			c1.401,8.792,3.153,11.476,8.977,13.746c3.979,1.552,9.717,6.907,12.749,11.9l5.513,9.079l-8.977,16.777l-8.979,13.94
			l7.807,17.815c11.103,25.336,13.652,34.921,9.676,36.357c-6.514,2.354-7.306,35.24-0.953,39.612
			c2.744,1.889,3.722,4.927,2.729,8.496c-1.055,3.794,0.246,7.125,4.1,10.504c7.406,6.494,7.129,11.202-0.953,16.186l-6.597,4.068
			l5.4,7.137c2.97,3.925,8.866,9.065,13.105,11.422c12,6.671,14.757,15.693,8.36,27.366c-4.948,9.03-24.064,33.422-32.426,41.374
			c-2.069,1.968-10.767,11.013-19.326,20.101c-13.238,14.054-16.803,16.479-23.851,16.229c-4.557-0.161-12.094,1.561-16.751,3.827
			c-4.656,2.266-10.95,4.12-13.987,4.12c-3.038,0-8.401,1.775-11.92,3.946c-3.519,2.169-9.139,4.316-12.488,4.771
			c-3.351,0.454-10.028,1.981-14.838,3.396C655.3,504.531,653.289,504.321,652.097,501.396z M640.614,498.305
			c0-1.339,1.888-3.115,4.194-3.949c2.58-0.932,3.79-0.374,3.146,1.447C646.634,499.529,640.614,501.582,640.614,498.305z
			 M590.287,494.091c0-2.056,1.751-3.739,3.891-3.739c2.369,0,3.293,1.462,2.365,3.739c-0.838,2.057-2.589,3.739-3.89,3.739
			C591.352,497.83,590.287,496.147,590.287,494.091z M486.986,165.244c0-3.814,10.876-8.998,16.646-7.933
			c1.771,0.328,3.054-1.369,2.851-3.768c-0.202-2.4,0.609-4.362,1.803-4.362s2.551-2.437,3.016-5.415
			c1.05-6.712,7.438-9.163,7.554-2.896c0.078,4.307,0.285,4.321,3.572,0.247c3.643-4.515,6.938-3.447,6.938,2.246
			c0,3.298-4.877,8.604-14.517,15.788c-4.609,3.436-4.858,3.346-3.081-1.106c1.887-4.727,1.801-4.732-3.477-0.237
			c-2.978,2.535-5.412,3.66-5.412,2.5c0-1.161-1.49-0.369-3.312,1.757C494.656,167.804,486.986,169.74,486.986,165.244z
			 M498.887,147.611c4.25-6.103,4.219-6.199-1.118-3.511c-4.042,2.035-5.484,2.022-5.484-0.051c0-1.548,2.383-3.4,5.296-4.118
			c2.914-0.716,5.417-2.575,5.562-4.128c0.146-1.555,1.147-0.021,2.229,3.406c1.079,3.428,0.971,7.457-0.242,8.955
			c-1.213,1.497-1.671,3.224-1.017,3.84c0.653,0.614-1.238,1.29-4.204,1.5C494.75,153.87,494.707,153.616,498.887,147.611z
			 M550.218,106.974c3.876-1.952,5.461-1.701,6.579,1.042c0.812,1.988,0.314,4.288-1.102,5.112
			c-1.418,0.824-1.999,2.379-1.292,3.455c0.706,1.076-1.714,3.242-5.379,4.813C540.922,124.87,547.408,108.389,550.218,106.974z
			 M578.688,105.863c-2.054-7.701,0.389-14.017,5.421-14.017c2.818,0,3.63,2.455,3.027,9.155
			C586.172,111.741,581.042,114.693,578.688,105.863z M563.152,98.078c0.695-3.427,2.191-6.232,3.321-6.232
			c3.634,0,4.957,6.778,1.888,9.667C563.61,105.984,561.789,104.783,563.152,98.078z M574.395,85.614
			c-2.7-3.062-2.52-3.739,1.001-3.739c2.363,0,4.314-1.402,4.337-3.116c0.029-2.206,0.732-2.089,2.403,0.397
			c2.519,3.742,0.997,10.197-2.401,10.197C578.611,89.354,576.208,87.671,574.395,85.614z M665.537,48.531
			c-2.213-5.428-0.665-6.886,4.269-4.017c3.028,1.762,3.175,2.911,0.672,5.267C667.975,52.138,666.896,51.865,665.537,48.531z"/>
	</g>
</g>
</svg>
