<?xml version="1.0" encoding="utf-8"?>
<!-- Generator: Adobe Illustrator 16.0.0, SVG Export Plug-In . SVG Version: 6.00 Build 0)  -->
<!DOCTYPE svg PUBLIC "-//W3C//DTD SVG 1.1//EN" "http://www.w3.org/Graphics/SVG/1.1/DTD/svg11.dtd">
<svg version="1.1" id="Layer_1" xmlns="http://www.w3.org/2000/svg" xmlns:xlink="http://www.w3.org/1999/xlink" x="0px" y="0px"
	 width="168.039px" height="86.477px" viewBox="0 0 168.039 86.477" enable-background="new 0 0 168.039 86.477"
	 xml:space="preserve">
<g>
	<path id="chasis" fill="#5D9CEC" d="M157.321,74.14c-1.157,0-2.266-0.141-3.334-0.277c-0.75-0.096-1.459-0.186-2.133-0.221
		c-0.478-0.024-1.033,0.005-1.576,0.032c-0.504,0.024-1.014,0.047-1.512,0.047c-0.806,0-1.468-0.058-2.082-0.183
		c-3.271-0.668-3.87-2.729-4.308-4.231l-0.142-0.479c-0.626-2.036-1.901-3.266-4.019-3.863c-0.6-0.17-1.242-0.256-1.911-0.256
		c-3.093,0-6.96,1.916-9.853,4.881c-0.306,0.311-0.52,0.582-0.705,0.813c-0.951,1.187-1.942,2.18-4.455,2.33
		c-1.479,0.092-2.93-0.055-4.293-0.198l-0.528-0.057c-1.06-0.111-2.134-0.203-3.208-0.293c-1.947-0.164-3.96-0.333-5.889-0.63
		c-4.209-0.654-8.797-0.832-13.233-1.004c-1.751-0.068-3.491-0.135-5.198-0.229c-6.404-0.355-12.474-0.688-18.723-1.021
		c-1.081-0.058-2.18-0.086-3.36-0.086c-3.325,0-6.696,0.233-9.957,0.458c-1.906,0.132-3.812,0.263-5.73,0.354
		c-1.911,0.089-4.297,0.06-6.597,0.012c-1.067-0.022-2.133-0.045-3.194-0.049c-0.268,0-0.557,0.019-0.861,0.037
		c-0.447,0.027-0.917,0.054-1.378,0.054c-1.051,0-2.591-0.118-3.821-1.138c-1.241-1.019-1.694-2.642-2.059-3.944
		C33.177,64.682,33.068,64.29,33,64.13c-0.935-2.217-2.583-3.341-4.898-3.341c-1.911,0-4.023,0.788-5.794,2.162
		c-0.402,0.312-0.765,0.609-1.105,0.888c-1.888,1.543-3.671,3.001-7.48,3.168c-0.463,0.021-1.176,0.1-1.93,0.184
		c-1.341,0.149-3.01,0.335-4.537,0.335c-1.996,0-3.421-0.314-4.486-0.992c-1.371-0.878-2.273-2.283-2.619-4.068
		c-0.463-2.391,0.165-5.397,1.527-7.311c1.301-1.827,2.778-2.324,4.082-2.763l0.819-0.281c0.123-0.042,0.258-0.089,0.383-0.134
		c0.001-0.015,0.003-0.029,0.005-0.046c0.058-0.527,0.098-1.049,0.139-1.569c0.192-2.473,0.411-5.275,2.261-7.81
		c1.62-2.218,4.465-3.801,8.699-4.837c2.284-0.556,4.564-0.731,6.769-0.9c3.602-0.275,7.003-0.538,9.75-2.464
		c3.776-2.653,6.491-6.736,9.117-10.687c0.352-0.529,0.702-1.057,1.054-1.579c0.672-0.999,1.325-2.01,1.976-3.021
		c2.43-3.769,4.943-7.667,8.504-10.931c4.978-4.566,9.621-6.652,16.024-7.198c5.598-0.479,11.326-0.544,16.683-0.544l2.73,0.005
		c2.209,0,4.498-0.1,6.713-0.194C99.662,0.102,102.015,0,104.348,0c2.168,0,4.087,0.088,5.866,0.271
		c3.365,0.348,6.955,0.392,10.427,0.433c2.433,0.028,4.944,0.06,7.401,0.191c1.469,0.08,3.002,0.039,4.543,0.002
		c0.938-0.022,1.881-0.046,2.816-0.046c3.105,0,6.715,0.23,9.941,1.938l0.257,0.136l0.846,0.722
		c9.841,8.328,13.147,17.546,15.087,28.823c0.493,2.893,0.973,6.037,1.133,9.448c0.039,0.841,0.104,1.688,0.17,2.542
		c0.192,2.533,0.393,5.151,0.002,7.806c-0.092,0.623-0.25,1.256-0.418,1.927c-0.199,0.794-0.662,2.645-0.431,3.141
		c0.007,0,0.035,0.018,0.087,0.041c0.096,0.044,0.44,0.076,0.668,0.097c0.95,0.087,2.541,0.233,3.862,1.702
		c2.017,2.223,1.388,5.138,1.147,6.234c-0.771,3.525-2.979,6.377-6.061,7.827C160.396,73.844,158.966,74.14,157.321,74.14z
		 M151.483,68.387c0.216,0,0.427,0.005,0.634,0.015c0.877,0.046,1.721,0.152,2.534,0.257c0.947,0.12,1.845,0.234,2.67,0.234
		c0.867,0,1.548-0.129,2.14-0.407c1.592-0.751,2.748-2.28,3.168-4.196c0.219-1.016,0.156-1.411,0.113-1.542
		c-0.128-0.021-0.324-0.039-0.479-0.054c-0.615-0.057-1.459-0.134-2.363-0.546c-4.385-1.992-3.16-6.881-2.569-9.23
		c0.135-0.542,0.264-1.056,0.317-1.417c0.304-2.073,0.135-4.292-0.045-6.644c-0.067-0.902-0.138-1.802-0.181-2.692
		c-0.146-3.129-0.598-6.083-1.062-8.81c-1.741-10.144-4.674-18.399-13.313-25.711l-0.396-0.339
		c-2.174-1.059-4.874-1.206-7.247-1.206c-0.896,0-1.794,0.022-2.688,0.044c-1.682,0.041-3.353,0.08-4.955-0.008
		c-2.346-0.126-4.803-0.156-7.18-0.185c-3.59-0.043-7.302-0.089-10.902-0.459c-1.598-0.164-3.342-0.244-5.329-0.244
		c-2.22,0-4.515,0.1-6.735,0.195c-2.27,0.099-4.617,0.2-6.939,0.2l-2.73-0.005c-5.241,0-10.834,0.064-16.237,0.526
		C66.5,6.607,62.877,8.244,58.782,12c-3.063,2.808-5.287,6.257-7.641,9.908c-0.67,1.039-1.341,2.079-2.033,3.106
		c-0.347,0.516-0.691,1.034-1.038,1.554c-2.894,4.354-5.887,8.854-10.471,12.075c-3.926,2.754-8.215,3.083-12.363,3.402
		c-2.088,0.16-4.06,0.312-5.927,0.766c-3.658,0.896-5.122,2.035-5.705,2.834c-0.973,1.332-1.109,3.088-1.268,5.123
		c-0.044,0.574-0.09,1.15-0.153,1.727c-0.333,3.123-1.758,3.84-3.895,4.577L7.43,57.366c-1.034,0.348-1.184,0.417-1.479,0.832
		c-0.477,0.67-0.861,2.178-0.649,3.271c0.062,0.321,0.173,0.567,0.291,0.642c-0.01-0.011,0.353,0.168,1.663,0.168
		c1.235,0,2.68-0.16,3.955-0.303c0.88-0.098,1.641-0.183,2.28-0.211c2.069-0.09,2.702-0.606,4.39-1.988
		c0.372-0.304,0.769-0.628,1.21-0.971c2.674-2.074,5.958-3.264,9.011-3.264c4.431,0,7.978,2.387,9.733,6.549
		c0.196,0.466,0.336,0.965,0.484,1.495c0.093,0.333,0.248,0.886,0.385,1.229c0.293,0.027,0.972,0.005,1.505-0.025
		c0.416-0.025,0.812-0.047,1.166-0.047c1.12,0.004,2.216,0.026,3.313,0.05c2.083,0.044,4.174,0.089,6.243-0.006
		c1.876-0.089,3.745-0.219,5.612-0.348c3.349-0.23,6.812-0.471,10.318-0.471c1.274,0,2.464,0.03,3.64,0.093
		c6.252,0.334,12.326,0.666,18.733,1.021c1.68,0.093,3.389,0.159,5.111,0.226c4.585,0.178,9.326,0.362,13.832,1.062
		c1.746,0.269,3.669,0.43,5.527,0.587c1.111,0.094,2.223,0.187,3.312,0.303l0.538,0.056c1.265,0.135,2.307,0.249,3.418,0.181
		c0.208-0.013,0.337-0.031,0.41-0.045c0.072-0.083,0.181-0.218,0.271-0.331c0.246-0.307,0.582-0.727,1.048-1.199
		c4.938-5.062,11.666-7.502,16.944-6.004c3.824,1.081,6.455,3.631,7.604,7.374l0.162,0.552c0.051,0.171,0.107,0.367,0.156,0.52
		c0.045,0.012,0.098,0.023,0.158,0.036c0.498,0.102,1.432,0.078,2.299,0.036C150.524,68.41,151.013,68.387,151.483,68.387z
		 M57.987,40.159c-0.82,0-1.331-0.038-1.841-0.243c-2.097-0.846-3.921-3.96-3.041-6.562c0.606-1.792,1.408-3.661,2.183-5.468
		c0.423-0.987,0.843-1.967,1.223-2.916c0.22-0.55,0.426-1.251,0.643-1.994c0.656-2.239,1.473-5.024,3.639-6.781
		c2.277-1.843,5.396-1.948,7.902-2.034c0.706-0.024,1.372-0.047,1.94-0.104c1.172-0.116,2.368-0.3,3.634-0.495
		c1.828-0.281,3.718-0.572,5.594-0.654c0.289-0.013,0.564-0.02,0.832-0.02c4.375,0,5.741,2.451,6.117,4.507
		c0.275,1.512,0.178,3.062,0.083,4.563c-0.054,0.858-0.104,1.671-0.074,2.354c0.066,1.402-0.071,2.654-0.206,3.864
		c-0.1,0.906-0.195,1.763-0.195,2.635c-0.002,0.287,0.019,0.597,0.037,0.917c0.104,1.76,0.319,5.423-3.084,6.734l-0.359,0.139
		l-0.384,0.029C81.809,38.692,62.526,40.159,57.987,40.159z M58.145,34.832c0.009,0.024,0.02,0.052,0.032,0.079
		c4.081-0.035,19.085-1.142,23.074-1.44c0.026-0.427-0.01-1.051-0.033-1.435c-0.025-0.437-0.048-0.857-0.047-1.239
		c0.002-1.152,0.117-2.192,0.228-3.198c0.117-1.055,0.227-2.051,0.18-3.044c-0.045-0.97,0.018-1.964,0.078-2.926
		c0.075-1.187,0.151-2.412-0.009-3.292c-0.009-0.052-0.019-0.094-0.028-0.127c-0.132-0.032-0.407-0.075-0.926-0.075
		c-0.198,0-0.402,0.005-0.609,0.014c-1.581,0.069-3.25,0.327-5.017,0.6c-1.279,0.196-2.602,0.4-3.912,0.529
		c-0.736,0.074-1.522,0.102-2.282,0.128c-1.813,0.062-3.869,0.132-4.778,0.866c-0.894,0.726-1.432,2.562-1.906,4.182
		c-0.243,0.828-0.494,1.684-0.807,2.466c-0.395,0.988-0.832,2.008-1.272,3.035C59.406,31.596,58.68,33.291,58.145,34.832z"/>
	<path id="front" fill="#5D9CEC" d="M19.538,61.509c-4.034,4.313-3.95,12.275,0.178,16.706c1.708,1.83,3.774,2.783,5.961,2.783
		c0.649,0,1.31-0.084,1.974-0.254c4.073-1.042,7.158-5.077,7.993-8.345c0.083-0.324,0.185-0.646,0.285-0.966
		c0.48-1.532,1.137-3.629,0.04-5.912c-0.878-1.803-2.679-3.644-4.078-4.67C27.994,58.001,23.257,58.262,19.538,61.509
		 M30.922,69.865c-0.128,0.407-0.255,0.819-0.362,1.235c-0.45,1.764-2.289,4.069-4.209,4.561c-0.637,0.164-1.623,0.233-2.797-1.024
		c-2.163-2.322-2.334-6.858-0.429-9.259l0,0c1.896-1.655,3.733-1.708,5.665-0.294c0.97,0.712,2.074,1.938,2.456,2.724
		C31.421,68.172,31.275,68.741,30.922,69.865z"/>
	<path id="back" fill="#5D9CEC" d="M142.044,65.953c-1.01-1.029-2.836-2.231-5.871-2.109l-0.2,0.007
		c-2.483,0.088-10.037,0.357-11.819,7.455c-0.436,1.728-0.062,3.847,0.112,4.659c0.412,6.477,6.427,9.684,6.687,9.819l0.342,0.147
		c1.035,0.364,2.082,0.544,3.111,0.544c1.742,0,3.44-0.514,4.965-1.526c2.934-1.949,4.9-5.571,5.133-9.451
		C144.772,71.038,143.968,67.915,142.044,65.953z M139.264,75.185c-0.134,2.237-1.231,4.355-2.8,5.396
		c-0.993,0.662-2.082,0.816-3.23,0.468c-0.688-0.416-3.609-2.369-3.738-5.55l-0.01-0.261l-0.062-0.253
		c-0.16-0.662-0.309-1.895-0.182-2.394v-0.004c0.723-2.878,3.752-3.379,6.918-3.492l0.219-0.008
		c1.346-0.047,1.775,0.393,1.918,0.539C138.755,70.094,139.492,71.437,139.264,75.185z"/>
</g>
</svg>
